G04 #@! TF.GenerationSoftware,KiCad,Pcbnew,5.1.5-1.fc31*
G04 #@! TF.CreationDate,2020-02-13T14:12:49+01:00*
G04 #@! TF.ProjectId,pcbdesign,70636264-6573-4696-976e-2e6b69636164,rev?*
G04 #@! TF.SameCoordinates,Original*
G04 #@! TF.FileFunction,Legend,Bot*
G04 #@! TF.FilePolarity,Positive*
%FSLAX46Y46*%
G04 Gerber Fmt 4.6, Leading zero omitted, Abs format (unit mm)*
G04 Created by KiCad (PCBNEW 5.1.5-1.fc31) date 2020-02-13 14:12:49*
%MOMM*%
%LPD*%
G04 APERTURE LIST*
%ADD10C,0.150000*%
%ADD11C,0.010000*%
G04 APERTURE END LIST*
D10*
X178600000Y-123102380D02*
X178600000Y-122102380D01*
X178266666Y-122816666D01*
X177933333Y-122102380D01*
X177933333Y-123102380D01*
X177028571Y-123102380D02*
X177028571Y-122578571D01*
X177076190Y-122483333D01*
X177171428Y-122435714D01*
X177361904Y-122435714D01*
X177457142Y-122483333D01*
X177028571Y-123054761D02*
X177123809Y-123102380D01*
X177361904Y-123102380D01*
X177457142Y-123054761D01*
X177504761Y-122959523D01*
X177504761Y-122864285D01*
X177457142Y-122769047D01*
X177361904Y-122721428D01*
X177123809Y-122721428D01*
X177028571Y-122673809D01*
X176552380Y-123102380D02*
X176552380Y-122435714D01*
X176552380Y-122626190D02*
X176504761Y-122530952D01*
X176457142Y-122483333D01*
X176361904Y-122435714D01*
X176266666Y-122435714D01*
X175933333Y-123102380D02*
X175933333Y-122102380D01*
X175838095Y-122721428D02*
X175552380Y-123102380D01*
X175552380Y-122435714D02*
X175933333Y-122816666D01*
X178433333Y-124752380D02*
X178433333Y-123752380D01*
X177861904Y-124752380D02*
X178290476Y-124180952D01*
X177861904Y-123752380D02*
X178433333Y-124323809D01*
X177528571Y-124085714D02*
X177290476Y-124752380D01*
X177052380Y-124085714D02*
X177290476Y-124752380D01*
X177385714Y-124990476D01*
X177433333Y-125038095D01*
X177528571Y-125085714D01*
X176528571Y-124752380D02*
X176623809Y-124704761D01*
X176671428Y-124609523D01*
X176671428Y-123752380D01*
X175766666Y-124704761D02*
X175861904Y-124752380D01*
X176052380Y-124752380D01*
X176147619Y-124704761D01*
X176195238Y-124609523D01*
X176195238Y-124228571D01*
X176147619Y-124133333D01*
X176052380Y-124085714D01*
X175861904Y-124085714D01*
X175766666Y-124133333D01*
X175719047Y-124228571D01*
X175719047Y-124323809D01*
X176195238Y-124419047D01*
X179123809Y-125402380D02*
X178790476Y-126402380D01*
X178457142Y-125402380D01*
X178123809Y-126402380D02*
X178123809Y-125735714D01*
X178123809Y-125402380D02*
X178171428Y-125450000D01*
X178123809Y-125497619D01*
X178076190Y-125450000D01*
X178123809Y-125402380D01*
X178123809Y-125497619D01*
X177647619Y-126402380D02*
X177647619Y-125402380D01*
X177552380Y-126021428D02*
X177266666Y-126402380D01*
X177266666Y-125735714D02*
X177647619Y-126116666D01*
X176980952Y-125735714D02*
X176600000Y-125735714D01*
X176838095Y-125402380D02*
X176838095Y-126259523D01*
X176790476Y-126354761D01*
X176695238Y-126402380D01*
X176600000Y-126402380D01*
X176123809Y-126402380D02*
X176219047Y-126354761D01*
X176266666Y-126307142D01*
X176314285Y-126211904D01*
X176314285Y-125926190D01*
X176266666Y-125830952D01*
X176219047Y-125783333D01*
X176123809Y-125735714D01*
X175980952Y-125735714D01*
X175885714Y-125783333D01*
X175838095Y-125830952D01*
X175790476Y-125926190D01*
X175790476Y-126211904D01*
X175838095Y-126307142D01*
X175885714Y-126354761D01*
X175980952Y-126402380D01*
X176123809Y-126402380D01*
X175361904Y-126402380D02*
X175361904Y-125735714D01*
X175361904Y-125926190D02*
X175314285Y-125830952D01*
X175266666Y-125783333D01*
X175171428Y-125735714D01*
X175076190Y-125735714D01*
X185819047Y-121252380D02*
X185819047Y-120252380D01*
X185485714Y-120966666D01*
X185152380Y-120252380D01*
X185152380Y-121252380D01*
X184247619Y-121252380D02*
X184247619Y-120728571D01*
X184295238Y-120633333D01*
X184390476Y-120585714D01*
X184580952Y-120585714D01*
X184676190Y-120633333D01*
X184247619Y-121204761D02*
X184342857Y-121252380D01*
X184580952Y-121252380D01*
X184676190Y-121204761D01*
X184723809Y-121109523D01*
X184723809Y-121014285D01*
X184676190Y-120919047D01*
X184580952Y-120871428D01*
X184342857Y-120871428D01*
X184247619Y-120823809D01*
X183342857Y-121252380D02*
X183342857Y-120252380D01*
X183342857Y-121204761D02*
X183438095Y-121252380D01*
X183628571Y-121252380D01*
X183723809Y-121204761D01*
X183771428Y-121157142D01*
X183819047Y-121061904D01*
X183819047Y-120776190D01*
X183771428Y-120680952D01*
X183723809Y-120633333D01*
X183628571Y-120585714D01*
X183438095Y-120585714D01*
X183342857Y-120633333D01*
X182485714Y-121204761D02*
X182580952Y-121252380D01*
X182771428Y-121252380D01*
X182866666Y-121204761D01*
X182914285Y-121109523D01*
X182914285Y-120728571D01*
X182866666Y-120633333D01*
X182771428Y-120585714D01*
X182580952Y-120585714D01*
X182485714Y-120633333D01*
X182438095Y-120728571D01*
X182438095Y-120823809D01*
X182914285Y-120919047D01*
X181247619Y-121252380D02*
X181247619Y-120252380D01*
X181247619Y-120633333D02*
X181152380Y-120585714D01*
X180961904Y-120585714D01*
X180866666Y-120633333D01*
X180819047Y-120680952D01*
X180771428Y-120776190D01*
X180771428Y-121061904D01*
X180819047Y-121157142D01*
X180866666Y-121204761D01*
X180961904Y-121252380D01*
X181152380Y-121252380D01*
X181247619Y-121204761D01*
X180438095Y-120585714D02*
X180200000Y-121252380D01*
X179961904Y-120585714D02*
X180200000Y-121252380D01*
X180295238Y-121490476D01*
X180342857Y-121538095D01*
X180438095Y-121585714D01*
X179580952Y-121157142D02*
X179533333Y-121204761D01*
X179580952Y-121252380D01*
X179628571Y-121204761D01*
X179580952Y-121157142D01*
X179580952Y-121252380D01*
X179580952Y-120633333D02*
X179533333Y-120680952D01*
X179580952Y-120728571D01*
X179628571Y-120680952D01*
X179580952Y-120633333D01*
X179580952Y-120728571D01*
X187496413Y-118328571D02*
X187359508Y-118376190D01*
X187317842Y-118423809D01*
X187282127Y-118519047D01*
X187299985Y-118661904D01*
X187359508Y-118757142D01*
X187413080Y-118804761D01*
X187514270Y-118852380D01*
X187895223Y-118852380D01*
X187770223Y-117852380D01*
X187436889Y-117852380D01*
X187347604Y-117900000D01*
X187305937Y-117947619D01*
X187270223Y-118042857D01*
X187282127Y-118138095D01*
X187341651Y-118233333D01*
X187395223Y-118280952D01*
X187496413Y-118328571D01*
X187829747Y-118328571D01*
X186508318Y-118804761D02*
X186609508Y-118852380D01*
X186799985Y-118852380D01*
X186889270Y-118804761D01*
X186924985Y-118709523D01*
X186877366Y-118328571D01*
X186817842Y-118233333D01*
X186716651Y-118185714D01*
X186526175Y-118185714D01*
X186436889Y-118233333D01*
X186401175Y-118328571D01*
X186413080Y-118423809D01*
X186901175Y-118519047D01*
X185603556Y-118804761D02*
X185704747Y-118852380D01*
X185895223Y-118852380D01*
X185984508Y-118804761D01*
X186026175Y-118757142D01*
X186061889Y-118661904D01*
X186026175Y-118376190D01*
X185966651Y-118280952D01*
X185913080Y-118233333D01*
X185811889Y-118185714D01*
X185621413Y-118185714D01*
X185532127Y-118233333D01*
X184752366Y-118852380D02*
X184686889Y-118328571D01*
X184722604Y-118233333D01*
X184811889Y-118185714D01*
X185002366Y-118185714D01*
X185103556Y-118233333D01*
X184746413Y-118804761D02*
X184847604Y-118852380D01*
X185085699Y-118852380D01*
X185174985Y-118804761D01*
X185210699Y-118709523D01*
X185198794Y-118614285D01*
X185139270Y-118519047D01*
X185038080Y-118471428D01*
X184799985Y-118471428D01*
X184698794Y-118423809D01*
X183764270Y-118185714D02*
X183847604Y-118852380D01*
X184192842Y-118185714D02*
X184258318Y-118709523D01*
X184222604Y-118804761D01*
X184133318Y-118852380D01*
X183990461Y-118852380D01*
X183889270Y-118804761D01*
X183835699Y-118757142D01*
X183413080Y-118804761D02*
X183323794Y-118852380D01*
X183133318Y-118852380D01*
X183032127Y-118804761D01*
X182972604Y-118709523D01*
X182966651Y-118661904D01*
X183002366Y-118566666D01*
X183091651Y-118519047D01*
X183234508Y-118519047D01*
X183323794Y-118471428D01*
X183359508Y-118376190D01*
X183353556Y-118328571D01*
X183294032Y-118233333D01*
X183192842Y-118185714D01*
X183049985Y-118185714D01*
X182960699Y-118233333D01*
X182174985Y-118804761D02*
X182276175Y-118852380D01*
X182466651Y-118852380D01*
X182555937Y-118804761D01*
X182591651Y-118709523D01*
X182544032Y-118328571D01*
X182484508Y-118233333D01*
X182383318Y-118185714D01*
X182192842Y-118185714D01*
X182103556Y-118233333D01*
X182067842Y-118328571D01*
X182079747Y-118423809D01*
X182567842Y-118519047D01*
X180942842Y-118852380D02*
X180859508Y-118185714D01*
X180817842Y-117852380D02*
X180871413Y-117900000D01*
X180829747Y-117947619D01*
X180776175Y-117900000D01*
X180817842Y-117852380D01*
X180829747Y-117947619D01*
X180526175Y-118185714D02*
X180145223Y-118185714D01*
X180341651Y-117852380D02*
X180448794Y-118709523D01*
X180413080Y-118804761D01*
X180323794Y-118852380D01*
X180228556Y-118852380D01*
X179722604Y-117852380D02*
X179841651Y-118042857D01*
X179460699Y-118804761D02*
X179371413Y-118852380D01*
X179180937Y-118852380D01*
X179079747Y-118804761D01*
X179020223Y-118709523D01*
X179014270Y-118661904D01*
X179049985Y-118566666D01*
X179139270Y-118519047D01*
X179282127Y-118519047D01*
X179371413Y-118471428D01*
X179407127Y-118376190D01*
X179401175Y-118328571D01*
X179341651Y-118233333D01*
X179240461Y-118185714D01*
X179097604Y-118185714D01*
X179008318Y-118233333D01*
X177817842Y-117852380D02*
X177198794Y-117852380D01*
X177579747Y-118233333D01*
X177436889Y-118233333D01*
X177347604Y-118280952D01*
X177305937Y-118328571D01*
X177270223Y-118423809D01*
X177299985Y-118661904D01*
X177359508Y-118757142D01*
X177413080Y-118804761D01*
X177514270Y-118852380D01*
X177799985Y-118852380D01*
X177889270Y-118804761D01*
X177930937Y-118757142D01*
X176466651Y-118852380D02*
X176401175Y-118328571D01*
X176436889Y-118233333D01*
X176526175Y-118185714D01*
X176716651Y-118185714D01*
X176817842Y-118233333D01*
X176460699Y-118804761D02*
X176561889Y-118852380D01*
X176799985Y-118852380D01*
X176889270Y-118804761D01*
X176924985Y-118709523D01*
X176913080Y-118614285D01*
X176853556Y-118519047D01*
X176752366Y-118471428D01*
X176514270Y-118471428D01*
X176413080Y-118423809D01*
X175990461Y-118852380D02*
X175907127Y-118185714D01*
X175919032Y-118280952D02*
X175865461Y-118233333D01*
X175764270Y-118185714D01*
X175621413Y-118185714D01*
X175532127Y-118233333D01*
X175496413Y-118328571D01*
X175561889Y-118852380D01*
X175496413Y-118328571D02*
X175436889Y-118233333D01*
X175335699Y-118185714D01*
X175192842Y-118185714D01*
X175103556Y-118233333D01*
X175067842Y-118328571D01*
X175133318Y-118852380D01*
X173936889Y-118804761D02*
X173847604Y-118852380D01*
X173657127Y-118852380D01*
X173555937Y-118804761D01*
X173496413Y-118709523D01*
X173490461Y-118661904D01*
X173526175Y-118566666D01*
X173615461Y-118519047D01*
X173758318Y-118519047D01*
X173847604Y-118471428D01*
X173883318Y-118376190D01*
X173877366Y-118328571D01*
X173817842Y-118233333D01*
X173716651Y-118185714D01*
X173573794Y-118185714D01*
X173484508Y-118233333D01*
X172942842Y-118852380D02*
X173032127Y-118804761D01*
X173073794Y-118757142D01*
X173109508Y-118661904D01*
X173073794Y-118376190D01*
X173014270Y-118280952D01*
X172960699Y-118233333D01*
X172859508Y-118185714D01*
X172716651Y-118185714D01*
X172627366Y-118233333D01*
X172585699Y-118280952D01*
X172549985Y-118376190D01*
X172585699Y-118661904D01*
X172645223Y-118757142D01*
X172698794Y-118804761D01*
X172799985Y-118852380D01*
X172942842Y-118852380D01*
X172180937Y-118852380D02*
X172097604Y-118185714D01*
X172109508Y-118280952D02*
X172055937Y-118233333D01*
X171954747Y-118185714D01*
X171811889Y-118185714D01*
X171722604Y-118233333D01*
X171686889Y-118328571D01*
X171752366Y-118852380D01*
X171686889Y-118328571D02*
X171627366Y-118233333D01*
X171526175Y-118185714D01*
X171383318Y-118185714D01*
X171294032Y-118233333D01*
X171258318Y-118328571D01*
X171323794Y-118852380D01*
X170460699Y-118804761D02*
X170561889Y-118852380D01*
X170752366Y-118852380D01*
X170841651Y-118804761D01*
X170877366Y-118709523D01*
X170829747Y-118328571D01*
X170770223Y-118233333D01*
X170669032Y-118185714D01*
X170478556Y-118185714D01*
X170389270Y-118233333D01*
X170353556Y-118328571D01*
X170365461Y-118423809D01*
X170853556Y-118519047D01*
X170002366Y-118185714D02*
X169895223Y-118852380D01*
X169645223Y-118376190D01*
X169514270Y-118852380D01*
X169240461Y-118185714D01*
X168942842Y-118852380D02*
X168817842Y-117852380D01*
X168514270Y-118852380D02*
X168448794Y-118328571D01*
X168484508Y-118233333D01*
X168573794Y-118185714D01*
X168716651Y-118185714D01*
X168817842Y-118233333D01*
X168871413Y-118280952D01*
X167651175Y-118804761D02*
X167752366Y-118852380D01*
X167942842Y-118852380D01*
X168032127Y-118804761D01*
X168067842Y-118709523D01*
X168020223Y-118328571D01*
X167960699Y-118233333D01*
X167859508Y-118185714D01*
X167669032Y-118185714D01*
X167579747Y-118233333D01*
X167544032Y-118328571D01*
X167555937Y-118423809D01*
X168044032Y-118519047D01*
X167180937Y-118852380D02*
X167097604Y-118185714D01*
X167121413Y-118376190D02*
X167061889Y-118280952D01*
X167008318Y-118233333D01*
X166907127Y-118185714D01*
X166811889Y-118185714D01*
X166174985Y-118804761D02*
X166276175Y-118852380D01*
X166466651Y-118852380D01*
X166555937Y-118804761D01*
X166591651Y-118709523D01*
X166544032Y-118328571D01*
X166484508Y-118233333D01*
X166383318Y-118185714D01*
X166192842Y-118185714D01*
X166103556Y-118233333D01*
X166067842Y-118328571D01*
X166079747Y-118423809D01*
X166567842Y-118519047D01*
X165692842Y-118757142D02*
X165651175Y-118804761D01*
X165704747Y-118852380D01*
X165746413Y-118804761D01*
X165692842Y-118757142D01*
X165704747Y-118852380D01*
X165657127Y-118471428D02*
X165633318Y-117900000D01*
X165579747Y-117852380D01*
X165538080Y-117900000D01*
X165657127Y-118471428D01*
X165579747Y-117852380D01*
D11*
G36*
X150438775Y-112305154D02*
G01*
X151478357Y-112092156D01*
X151692521Y-111997984D01*
X152386686Y-111804503D01*
X153436360Y-111700171D01*
X154198662Y-111696659D01*
X155289431Y-111698913D01*
X156022641Y-111544704D01*
X156672665Y-111139909D01*
X157222638Y-110659321D01*
X157950437Y-109925079D01*
X158305894Y-109279378D01*
X158419379Y-108425505D01*
X158426250Y-107920001D01*
X158376094Y-106882622D01*
X158141263Y-106184008D01*
X157595213Y-105530589D01*
X157260346Y-105215236D01*
X156094442Y-104146765D01*
X151704096Y-104132517D01*
X149937065Y-104113853D01*
X148250282Y-104073041D01*
X146820223Y-104015832D01*
X145823363Y-103947978D01*
X145726250Y-103937710D01*
X144563246Y-103886350D01*
X143694001Y-104089853D01*
X143122289Y-104395785D01*
X141939166Y-105435501D01*
X141301709Y-106641321D01*
X141183936Y-107896880D01*
X143043222Y-107896880D01*
X143111773Y-106981767D01*
X143536236Y-106296603D01*
X143848461Y-106044784D01*
X144318871Y-105887467D01*
X145073937Y-105809287D01*
X146240128Y-105794881D01*
X147482526Y-105817211D01*
X149235700Y-105897289D01*
X150527415Y-106037121D01*
X151282975Y-106227590D01*
X151395982Y-106294931D01*
X151859677Y-106512957D01*
X152469431Y-106368072D01*
X152831425Y-106193698D01*
X153991092Y-105760009D01*
X154958197Y-105834748D01*
X155843432Y-106355545D01*
X156497939Y-107174185D01*
X156638976Y-108070429D01*
X156357256Y-108926466D01*
X155743494Y-109624488D01*
X154888402Y-110046685D01*
X153882695Y-110075246D01*
X153176480Y-109819103D01*
X152581228Y-109687796D01*
X151796175Y-109926050D01*
X151376429Y-110136603D01*
X150003421Y-110675921D01*
X148783327Y-110675518D01*
X147544201Y-110141314D01*
X146555746Y-109708962D01*
X145548084Y-109509110D01*
X145471721Y-109507500D01*
X144299507Y-109286344D01*
X143464570Y-108707271D01*
X143043222Y-107896880D01*
X141183936Y-107896880D01*
X141183238Y-107904313D01*
X141557072Y-109115547D01*
X142396532Y-110166089D01*
X143674938Y-110947009D01*
X144806706Y-111273089D01*
X145868912Y-111539236D01*
X146818540Y-111891045D01*
X146901107Y-111931184D01*
X147873986Y-112220817D01*
X149145263Y-112346757D01*
X150438775Y-112305154D01*
G37*
X150438775Y-112305154D02*
X151478357Y-112092156D01*
X151692521Y-111997984D01*
X152386686Y-111804503D01*
X153436360Y-111700171D01*
X154198662Y-111696659D01*
X155289431Y-111698913D01*
X156022641Y-111544704D01*
X156672665Y-111139909D01*
X157222638Y-110659321D01*
X157950437Y-109925079D01*
X158305894Y-109279378D01*
X158419379Y-108425505D01*
X158426250Y-107920001D01*
X158376094Y-106882622D01*
X158141263Y-106184008D01*
X157595213Y-105530589D01*
X157260346Y-105215236D01*
X156094442Y-104146765D01*
X151704096Y-104132517D01*
X149937065Y-104113853D01*
X148250282Y-104073041D01*
X146820223Y-104015832D01*
X145823363Y-103947978D01*
X145726250Y-103937710D01*
X144563246Y-103886350D01*
X143694001Y-104089853D01*
X143122289Y-104395785D01*
X141939166Y-105435501D01*
X141301709Y-106641321D01*
X141183936Y-107896880D01*
X143043222Y-107896880D01*
X143111773Y-106981767D01*
X143536236Y-106296603D01*
X143848461Y-106044784D01*
X144318871Y-105887467D01*
X145073937Y-105809287D01*
X146240128Y-105794881D01*
X147482526Y-105817211D01*
X149235700Y-105897289D01*
X150527415Y-106037121D01*
X151282975Y-106227590D01*
X151395982Y-106294931D01*
X151859677Y-106512957D01*
X152469431Y-106368072D01*
X152831425Y-106193698D01*
X153991092Y-105760009D01*
X154958197Y-105834748D01*
X155843432Y-106355545D01*
X156497939Y-107174185D01*
X156638976Y-108070429D01*
X156357256Y-108926466D01*
X155743494Y-109624488D01*
X154888402Y-110046685D01*
X153882695Y-110075246D01*
X153176480Y-109819103D01*
X152581228Y-109687796D01*
X151796175Y-109926050D01*
X151376429Y-110136603D01*
X150003421Y-110675921D01*
X148783327Y-110675518D01*
X147544201Y-110141314D01*
X146555746Y-109708962D01*
X145548084Y-109509110D01*
X145471721Y-109507500D01*
X144299507Y-109286344D01*
X143464570Y-108707271D01*
X143043222Y-107896880D01*
X141183936Y-107896880D01*
X141183238Y-107904313D01*
X141557072Y-109115547D01*
X142396532Y-110166089D01*
X143674938Y-110947009D01*
X144806706Y-111273089D01*
X145868912Y-111539236D01*
X146818540Y-111891045D01*
X146901107Y-111931184D01*
X147873986Y-112220817D01*
X149145263Y-112346757D01*
X150438775Y-112305154D01*
G36*
X160855362Y-104526845D02*
G01*
X161792422Y-104024297D01*
X163021807Y-102855548D01*
X163724851Y-101384052D01*
X163890643Y-99677953D01*
X163508271Y-97805392D01*
X162984783Y-96578258D01*
X162115262Y-95346032D01*
X160888238Y-94191107D01*
X159512720Y-93279485D01*
X158199317Y-92777489D01*
X157685945Y-92628152D01*
X157422917Y-92329399D01*
X157327113Y-91705364D01*
X157315000Y-90906431D01*
X157248682Y-89768886D01*
X157005432Y-89032752D01*
X156620131Y-88564869D01*
X156337651Y-88337936D01*
X155985332Y-88171111D01*
X155468489Y-88055218D01*
X154692434Y-87981084D01*
X153562480Y-87939536D01*
X151983939Y-87921400D01*
X149938199Y-87917500D01*
X147850222Y-87919713D01*
X146301670Y-87933691D01*
X145196969Y-87970441D01*
X144440544Y-88040970D01*
X143936820Y-88156288D01*
X143590224Y-88327401D01*
X143305181Y-88565318D01*
X143171818Y-88696819D01*
X142392500Y-89476137D01*
X142392500Y-96475569D01*
X142398713Y-98506912D01*
X142416113Y-100306614D01*
X142442839Y-101784146D01*
X142477032Y-102848976D01*
X142516831Y-103410573D01*
X142536310Y-103475000D01*
X142899579Y-103357374D01*
X143488810Y-103106537D01*
X144297500Y-102738073D01*
X144297500Y-96636663D01*
X144305277Y-94452306D01*
X144332660Y-92819910D01*
X144385725Y-91656581D01*
X144470550Y-90879425D01*
X144593211Y-90405547D01*
X144759785Y-90152052D01*
X144773750Y-90140000D01*
X145281922Y-89904804D01*
X145726250Y-90140000D01*
X145915014Y-90411004D01*
X146048614Y-90921830D01*
X146135378Y-91764772D01*
X146183635Y-93032120D01*
X146201712Y-94816168D01*
X146202500Y-95417627D01*
X146202500Y-100300000D01*
X148107500Y-100300000D01*
X148107500Y-98247421D01*
X148138393Y-97086794D01*
X148260264Y-96394454D01*
X148516894Y-96005444D01*
X148742500Y-95855000D01*
X149554397Y-95688850D01*
X150012500Y-95855000D01*
X150366444Y-96144288D01*
X150560453Y-96642054D01*
X150628227Y-97400436D01*
X157315000Y-97400436D01*
X157325562Y-96243551D01*
X157386749Y-95597255D01*
X157542809Y-95337165D01*
X157837991Y-95338903D01*
X158029375Y-95392380D01*
X158702227Y-95742827D01*
X159522150Y-96359514D01*
X159783961Y-96595388D01*
X160682737Y-97715184D01*
X161217989Y-98939285D01*
X161375480Y-100129646D01*
X161140974Y-101148218D01*
X160500233Y-101856958D01*
X160335496Y-101943336D01*
X159620762Y-102122149D01*
X158918239Y-101867463D01*
X158742584Y-101757183D01*
X158052954Y-101142015D01*
X157613767Y-100295744D01*
X157382092Y-99087358D01*
X157315000Y-97400436D01*
X150628227Y-97400436D01*
X150638310Y-97513255D01*
X150647500Y-98247421D01*
X150647500Y-100300000D01*
X155410000Y-100300000D01*
X155427079Y-101649375D01*
X155464500Y-102396985D01*
X155642166Y-102884373D01*
X156093579Y-103274372D01*
X156952235Y-103729814D01*
X157252704Y-103876150D01*
X158713366Y-104488964D01*
X159856604Y-104703981D01*
X160855362Y-104526845D01*
G37*
X160855362Y-104526845D02*
X161792422Y-104024297D01*
X163021807Y-102855548D01*
X163724851Y-101384052D01*
X163890643Y-99677953D01*
X163508271Y-97805392D01*
X162984783Y-96578258D01*
X162115262Y-95346032D01*
X160888238Y-94191107D01*
X159512720Y-93279485D01*
X158199317Y-92777489D01*
X157685945Y-92628152D01*
X157422917Y-92329399D01*
X157327113Y-91705364D01*
X157315000Y-90906431D01*
X157248682Y-89768886D01*
X157005432Y-89032752D01*
X156620131Y-88564869D01*
X156337651Y-88337936D01*
X155985332Y-88171111D01*
X155468489Y-88055218D01*
X154692434Y-87981084D01*
X153562480Y-87939536D01*
X151983939Y-87921400D01*
X149938199Y-87917500D01*
X147850222Y-87919713D01*
X146301670Y-87933691D01*
X145196969Y-87970441D01*
X144440544Y-88040970D01*
X143936820Y-88156288D01*
X143590224Y-88327401D01*
X143305181Y-88565318D01*
X143171818Y-88696819D01*
X142392500Y-89476137D01*
X142392500Y-96475569D01*
X142398713Y-98506912D01*
X142416113Y-100306614D01*
X142442839Y-101784146D01*
X142477032Y-102848976D01*
X142516831Y-103410573D01*
X142536310Y-103475000D01*
X142899579Y-103357374D01*
X143488810Y-103106537D01*
X144297500Y-102738073D01*
X144297500Y-96636663D01*
X144305277Y-94452306D01*
X144332660Y-92819910D01*
X144385725Y-91656581D01*
X144470550Y-90879425D01*
X144593211Y-90405547D01*
X144759785Y-90152052D01*
X144773750Y-90140000D01*
X145281922Y-89904804D01*
X145726250Y-90140000D01*
X145915014Y-90411004D01*
X146048614Y-90921830D01*
X146135378Y-91764772D01*
X146183635Y-93032120D01*
X146201712Y-94816168D01*
X146202500Y-95417627D01*
X146202500Y-100300000D01*
X148107500Y-100300000D01*
X148107500Y-98247421D01*
X148138393Y-97086794D01*
X148260264Y-96394454D01*
X148516894Y-96005444D01*
X148742500Y-95855000D01*
X149554397Y-95688850D01*
X150012500Y-95855000D01*
X150366444Y-96144288D01*
X150560453Y-96642054D01*
X150628227Y-97400436D01*
X157315000Y-97400436D01*
X157325562Y-96243551D01*
X157386749Y-95597255D01*
X157542809Y-95337165D01*
X157837991Y-95338903D01*
X158029375Y-95392380D01*
X158702227Y-95742827D01*
X159522150Y-96359514D01*
X159783961Y-96595388D01*
X160682737Y-97715184D01*
X161217989Y-98939285D01*
X161375480Y-100129646D01*
X161140974Y-101148218D01*
X160500233Y-101856958D01*
X160335496Y-101943336D01*
X159620762Y-102122149D01*
X158918239Y-101867463D01*
X158742584Y-101757183D01*
X158052954Y-101142015D01*
X157613767Y-100295744D01*
X157382092Y-99087358D01*
X157315000Y-97400436D01*
X150628227Y-97400436D01*
X150638310Y-97513255D01*
X150647500Y-98247421D01*
X150647500Y-100300000D01*
X155410000Y-100300000D01*
X155427079Y-101649375D01*
X155464500Y-102396985D01*
X155642166Y-102884373D01*
X156093579Y-103274372D01*
X156952235Y-103729814D01*
X157252704Y-103876150D01*
X158713366Y-104488964D01*
X159856604Y-104703981D01*
X160855362Y-104526845D01*
M02*
