G04 #@! TF.GenerationSoftware,KiCad,Pcbnew,5.1.5-1.fc31*
G04 #@! TF.CreationDate,2020-02-13T14:12:49+01:00*
G04 #@! TF.ProjectId,pcbdesign,70636264-6573-4696-976e-2e6b69636164,rev?*
G04 #@! TF.SameCoordinates,Original*
G04 #@! TF.FileFunction,Soldermask,Top*
G04 #@! TF.FilePolarity,Negative*
%FSLAX46Y46*%
G04 Gerber Fmt 4.6, Leading zero omitted, Abs format (unit mm)*
G04 Created by KiCad (PCBNEW 5.1.5-1.fc31) date 2020-02-13 14:12:49*
%MOMM*%
%LPD*%
G04 APERTURE LIST*
%ADD10C,0.100000*%
G04 APERTURE END LIST*
D10*
G36*
X186951000Y-128201000D02*
G01*
X183049000Y-128201000D01*
X183049000Y-126099000D01*
X186951000Y-126099000D01*
X186951000Y-128201000D01*
G37*
G36*
X162947714Y-125608058D02*
G01*
X163065721Y-125643855D01*
X163174468Y-125701981D01*
X163269790Y-125780210D01*
X163348019Y-125875532D01*
X163406145Y-125984278D01*
X163441942Y-126102285D01*
X163451000Y-126194254D01*
X163451000Y-126905746D01*
X163441942Y-126997715D01*
X163406145Y-127115722D01*
X163348019Y-127224468D01*
X163269790Y-127319790D01*
X163174468Y-127398019D01*
X163065722Y-127456145D01*
X162947715Y-127491942D01*
X162825000Y-127504028D01*
X162702286Y-127491942D01*
X162584279Y-127456145D01*
X162475533Y-127398019D01*
X162380211Y-127319790D01*
X162301982Y-127224468D01*
X162243855Y-127115721D01*
X162208058Y-126997715D01*
X162199000Y-126905746D01*
X162199000Y-126194255D01*
X162208058Y-126102286D01*
X162243855Y-125984279D01*
X162301981Y-125875532D01*
X162380210Y-125780210D01*
X162475532Y-125701981D01*
X162584278Y-125643855D01*
X162702285Y-125608058D01*
X162825000Y-125595972D01*
X162947714Y-125608058D01*
G37*
G36*
X170697714Y-125608058D02*
G01*
X170815721Y-125643855D01*
X170924468Y-125701981D01*
X171019790Y-125780210D01*
X171098019Y-125875532D01*
X171156145Y-125984278D01*
X171191942Y-126102285D01*
X171201000Y-126194254D01*
X171201000Y-126905746D01*
X171191942Y-126997715D01*
X171156145Y-127115722D01*
X171098019Y-127224468D01*
X171019790Y-127319790D01*
X170924468Y-127398019D01*
X170815722Y-127456145D01*
X170697715Y-127491942D01*
X170575000Y-127504028D01*
X170452286Y-127491942D01*
X170334279Y-127456145D01*
X170225533Y-127398019D01*
X170130211Y-127319790D01*
X170051982Y-127224468D01*
X169993855Y-127115721D01*
X169958058Y-126997715D01*
X169949000Y-126905746D01*
X169949000Y-126194255D01*
X169958058Y-126102286D01*
X169993855Y-125984279D01*
X170051981Y-125875532D01*
X170130210Y-125780210D01*
X170225532Y-125701981D01*
X170334278Y-125643855D01*
X170452285Y-125608058D01*
X170575000Y-125595972D01*
X170697714Y-125608058D01*
G37*
G36*
X177705997Y-124403051D02*
G01*
X177739652Y-124413261D01*
X177770665Y-124429838D01*
X177797851Y-124452149D01*
X177820162Y-124479335D01*
X177836739Y-124510348D01*
X177846949Y-124544003D01*
X177851000Y-124585138D01*
X177851000Y-127314862D01*
X177846949Y-127355997D01*
X177836739Y-127389652D01*
X177820162Y-127420665D01*
X177797851Y-127447851D01*
X177770665Y-127470162D01*
X177739652Y-127486739D01*
X177705997Y-127496949D01*
X177664862Y-127501000D01*
X176335138Y-127501000D01*
X176294003Y-127496949D01*
X176260348Y-127486739D01*
X176229335Y-127470162D01*
X176202149Y-127447851D01*
X176179838Y-127420665D01*
X176163261Y-127389652D01*
X176153051Y-127355997D01*
X176149000Y-127314862D01*
X176149000Y-124585138D01*
X176153051Y-124544003D01*
X176163261Y-124510348D01*
X176179838Y-124479335D01*
X176202149Y-124452149D01*
X176229335Y-124429838D01*
X176260348Y-124413261D01*
X176294003Y-124403051D01*
X176335138Y-124399000D01*
X177664862Y-124399000D01*
X177705997Y-124403051D01*
G37*
G36*
X163127120Y-121710228D02*
G01*
X163273401Y-121754602D01*
X163408206Y-121826657D01*
X163526367Y-121923628D01*
X163623345Y-122041796D01*
X163695398Y-122176598D01*
X163739772Y-122322879D01*
X163751000Y-122436882D01*
X163751000Y-123063118D01*
X163739772Y-123177121D01*
X163693598Y-123329336D01*
X163688948Y-123340561D01*
X163684167Y-123364595D01*
X163684167Y-123389099D01*
X163688946Y-123413132D01*
X163698323Y-123435771D01*
X163711936Y-123456146D01*
X163729263Y-123473473D01*
X163749637Y-123487088D01*
X163772275Y-123496466D01*
X163796309Y-123501247D01*
X163820813Y-123501247D01*
X163844846Y-123496468D01*
X163867485Y-123487091D01*
X163887860Y-123473478D01*
X163896952Y-123465238D01*
X163912505Y-123449685D01*
X163985367Y-123401000D01*
X163986371Y-123400329D01*
X163986373Y-123400328D01*
X164068448Y-123366331D01*
X164155579Y-123349000D01*
X164244421Y-123349000D01*
X164331552Y-123366331D01*
X164413627Y-123400328D01*
X164413629Y-123400329D01*
X164414633Y-123401000D01*
X164487495Y-123449685D01*
X164550315Y-123512505D01*
X164559493Y-123526241D01*
X164584686Y-123563944D01*
X164599672Y-123586373D01*
X164633669Y-123668448D01*
X164651000Y-123755579D01*
X164651000Y-123844421D01*
X164633669Y-123931552D01*
X164599672Y-124013627D01*
X164599671Y-124013629D01*
X164550314Y-124087496D01*
X164487496Y-124150314D01*
X164413629Y-124199671D01*
X164413628Y-124199672D01*
X164413627Y-124199672D01*
X164331552Y-124233669D01*
X164244421Y-124251000D01*
X164155579Y-124251000D01*
X164068448Y-124233669D01*
X163986373Y-124199672D01*
X163986372Y-124199672D01*
X163986371Y-124199671D01*
X163912504Y-124150314D01*
X163849686Y-124087496D01*
X163800329Y-124013629D01*
X163800328Y-124013627D01*
X163766331Y-123931552D01*
X163749000Y-123844421D01*
X163749000Y-123755579D01*
X163766807Y-123666054D01*
X163772510Y-123647257D01*
X163774912Y-123622871D01*
X163772511Y-123598485D01*
X163765398Y-123575036D01*
X163753847Y-123553425D01*
X163738302Y-123534483D01*
X163719361Y-123518937D01*
X163697750Y-123507386D01*
X163674301Y-123500272D01*
X163649915Y-123497870D01*
X163625529Y-123500271D01*
X163602080Y-123507384D01*
X163580469Y-123518935D01*
X163561527Y-123534480D01*
X163553288Y-123543570D01*
X163526372Y-123576367D01*
X163408204Y-123673345D01*
X163273402Y-123745398D01*
X163127121Y-123789772D01*
X162975000Y-123804754D01*
X162822880Y-123789772D01*
X162676599Y-123745398D01*
X162541797Y-123673345D01*
X162480295Y-123622871D01*
X162423632Y-123576369D01*
X162396714Y-123543570D01*
X162326657Y-123458206D01*
X162254601Y-123323400D01*
X162210228Y-123177121D01*
X162199000Y-123063118D01*
X162199000Y-122436883D01*
X162210228Y-122322880D01*
X162254602Y-122176599D01*
X162326657Y-122041794D01*
X162423628Y-121923633D01*
X162541796Y-121826655D01*
X162676598Y-121754602D01*
X162822879Y-121710228D01*
X162975000Y-121695246D01*
X163127120Y-121710228D01*
G37*
G36*
X170577120Y-121710228D02*
G01*
X170723401Y-121754602D01*
X170858206Y-121826657D01*
X170976367Y-121923628D01*
X171073345Y-122041796D01*
X171145398Y-122176598D01*
X171189772Y-122322879D01*
X171201000Y-122436882D01*
X171201000Y-123063118D01*
X171189772Y-123177121D01*
X171145398Y-123323402D01*
X171073345Y-123458204D01*
X171073343Y-123458206D01*
X171073342Y-123458208D01*
X170976369Y-123576369D01*
X170919707Y-123622871D01*
X170858204Y-123673345D01*
X170723402Y-123745398D01*
X170577121Y-123789772D01*
X170425000Y-123804754D01*
X170272880Y-123789772D01*
X170126599Y-123745398D01*
X169991797Y-123673345D01*
X169873628Y-123576366D01*
X169846711Y-123543568D01*
X169829384Y-123526241D01*
X169809009Y-123512627D01*
X169786370Y-123503250D01*
X169762337Y-123498470D01*
X169737833Y-123498470D01*
X169713800Y-123503251D01*
X169691161Y-123512628D01*
X169670787Y-123526242D01*
X169653460Y-123543569D01*
X169639846Y-123563944D01*
X169630469Y-123586583D01*
X169625689Y-123610616D01*
X169625689Y-123635120D01*
X169630470Y-123659153D01*
X169633510Y-123667648D01*
X169651000Y-123755579D01*
X169651000Y-123844421D01*
X169633669Y-123931552D01*
X169599672Y-124013627D01*
X169599671Y-124013629D01*
X169550314Y-124087496D01*
X169487496Y-124150314D01*
X169413629Y-124199671D01*
X169413628Y-124199672D01*
X169413627Y-124199672D01*
X169331552Y-124233669D01*
X169244421Y-124251000D01*
X169155579Y-124251000D01*
X169068448Y-124233669D01*
X168986373Y-124199672D01*
X168986372Y-124199672D01*
X168986371Y-124199671D01*
X168912504Y-124150314D01*
X168849686Y-124087496D01*
X168800329Y-124013629D01*
X168800328Y-124013627D01*
X168766331Y-123931552D01*
X168749000Y-123844421D01*
X168749000Y-123755579D01*
X168766331Y-123668448D01*
X168800328Y-123586373D01*
X168815315Y-123563944D01*
X168840507Y-123526241D01*
X168849685Y-123512505D01*
X168912505Y-123449685D01*
X168985367Y-123401000D01*
X168986371Y-123400329D01*
X168986373Y-123400328D01*
X169068448Y-123366331D01*
X169155579Y-123349000D01*
X169244421Y-123349000D01*
X169331552Y-123366331D01*
X169413627Y-123400328D01*
X169413629Y-123400329D01*
X169414633Y-123401000D01*
X169487495Y-123449685D01*
X169503048Y-123465238D01*
X169521990Y-123480783D01*
X169543601Y-123492334D01*
X169567050Y-123499447D01*
X169591436Y-123501849D01*
X169615822Y-123499447D01*
X169639271Y-123492334D01*
X169660882Y-123480783D01*
X169679824Y-123465238D01*
X169695369Y-123446296D01*
X169706920Y-123424685D01*
X169714033Y-123401236D01*
X169716435Y-123376850D01*
X169714033Y-123352464D01*
X169706920Y-123329015D01*
X169705204Y-123325386D01*
X169660228Y-123177121D01*
X169649000Y-123063118D01*
X169649000Y-122436883D01*
X169660228Y-122322880D01*
X169704602Y-122176599D01*
X169776657Y-122041794D01*
X169873628Y-121923633D01*
X169991796Y-121826655D01*
X170126598Y-121754602D01*
X170272879Y-121710228D01*
X170425000Y-121695246D01*
X170577120Y-121710228D01*
G37*
G36*
X168276000Y-123401000D02*
G01*
X165124000Y-123401000D01*
X165124000Y-121999000D01*
X168276000Y-121999000D01*
X168276000Y-123401000D01*
G37*
G36*
X177705997Y-120003051D02*
G01*
X177739652Y-120013261D01*
X177770665Y-120029838D01*
X177797851Y-120052149D01*
X177820162Y-120079335D01*
X177836739Y-120110348D01*
X177846949Y-120144003D01*
X177851000Y-120185138D01*
X177851000Y-122914862D01*
X177846949Y-122955997D01*
X177836739Y-122989652D01*
X177820162Y-123020665D01*
X177797851Y-123047851D01*
X177770665Y-123070162D01*
X177739652Y-123086739D01*
X177705997Y-123096949D01*
X177664862Y-123101000D01*
X176335138Y-123101000D01*
X176294003Y-123096949D01*
X176260348Y-123086739D01*
X176229335Y-123070162D01*
X176202149Y-123047851D01*
X176179838Y-123020665D01*
X176163261Y-122989652D01*
X176153051Y-122955997D01*
X176149000Y-122914862D01*
X176149000Y-120185138D01*
X176153051Y-120144003D01*
X176163261Y-120110348D01*
X176179838Y-120079335D01*
X176202149Y-120052149D01*
X176229335Y-120029838D01*
X176260348Y-120013261D01*
X176294003Y-120003051D01*
X176335138Y-119999000D01*
X177664862Y-119999000D01*
X177705997Y-120003051D01*
G37*
G36*
X150737142Y-121218242D02*
G01*
X150885101Y-121279529D01*
X151018255Y-121368499D01*
X151131501Y-121481745D01*
X151220471Y-121614899D01*
X151281758Y-121762858D01*
X151313000Y-121919925D01*
X151313000Y-122080075D01*
X151281758Y-122237142D01*
X151220471Y-122385101D01*
X151131501Y-122518255D01*
X151018255Y-122631501D01*
X150885101Y-122720471D01*
X150737142Y-122781758D01*
X150580075Y-122813000D01*
X150419925Y-122813000D01*
X150262858Y-122781758D01*
X150114899Y-122720471D01*
X149981745Y-122631501D01*
X149868499Y-122518255D01*
X149779529Y-122385101D01*
X149718242Y-122237142D01*
X149687000Y-122080075D01*
X149687000Y-121919925D01*
X149718242Y-121762858D01*
X149779529Y-121614899D01*
X149868499Y-121481745D01*
X149981745Y-121368499D01*
X150114899Y-121279529D01*
X150262858Y-121218242D01*
X150419925Y-121187000D01*
X150580075Y-121187000D01*
X150737142Y-121218242D01*
G37*
G36*
X145737142Y-121218242D02*
G01*
X145885101Y-121279529D01*
X146018255Y-121368499D01*
X146131501Y-121481745D01*
X146220471Y-121614899D01*
X146281758Y-121762858D01*
X146313000Y-121919925D01*
X146313000Y-122080075D01*
X146281758Y-122237142D01*
X146220471Y-122385101D01*
X146131501Y-122518255D01*
X146018255Y-122631501D01*
X145885101Y-122720471D01*
X145737142Y-122781758D01*
X145580075Y-122813000D01*
X145419925Y-122813000D01*
X145262858Y-122781758D01*
X145114899Y-122720471D01*
X144981745Y-122631501D01*
X144868499Y-122518255D01*
X144779529Y-122385101D01*
X144718242Y-122237142D01*
X144687000Y-122080075D01*
X144687000Y-121919925D01*
X144718242Y-121762858D01*
X144779529Y-121614899D01*
X144868499Y-121481745D01*
X144981745Y-121368499D01*
X145114899Y-121279529D01*
X145262858Y-121218242D01*
X145419925Y-121187000D01*
X145580075Y-121187000D01*
X145737142Y-121218242D01*
G37*
G36*
X188101000Y-121901000D02*
G01*
X186499000Y-121901000D01*
X186499000Y-119799000D01*
X188101000Y-119799000D01*
X188101000Y-121901000D01*
G37*
G36*
X185801000Y-121901000D02*
G01*
X184199000Y-121901000D01*
X184199000Y-119799000D01*
X185801000Y-119799000D01*
X185801000Y-121901000D01*
G37*
G36*
X183501000Y-121901000D02*
G01*
X181899000Y-121901000D01*
X181899000Y-119799000D01*
X183501000Y-119799000D01*
X183501000Y-121901000D01*
G37*
G36*
X177084468Y-116966065D02*
G01*
X177123138Y-116977796D01*
X177158777Y-116996846D01*
X177190017Y-117022483D01*
X177215654Y-117053723D01*
X177234704Y-117089362D01*
X177246435Y-117128032D01*
X177251000Y-117174388D01*
X177251000Y-117825612D01*
X177246435Y-117871968D01*
X177234704Y-117910638D01*
X177215654Y-117946277D01*
X177190017Y-117977517D01*
X177158777Y-118003154D01*
X177123138Y-118022204D01*
X177084468Y-118033935D01*
X177038112Y-118038500D01*
X175961888Y-118038500D01*
X175915532Y-118033935D01*
X175876862Y-118022204D01*
X175841223Y-118003154D01*
X175809983Y-117977517D01*
X175784346Y-117946277D01*
X175765296Y-117910638D01*
X175753565Y-117871968D01*
X175749000Y-117825612D01*
X175749000Y-117174388D01*
X175753565Y-117128032D01*
X175765296Y-117089362D01*
X175784346Y-117053723D01*
X175809983Y-117022483D01*
X175841223Y-116996846D01*
X175876862Y-116977796D01*
X175915532Y-116966065D01*
X175961888Y-116961500D01*
X177038112Y-116961500D01*
X177084468Y-116966065D01*
G37*
G36*
X180334468Y-116966065D02*
G01*
X180373138Y-116977796D01*
X180408777Y-116996846D01*
X180440017Y-117022483D01*
X180465654Y-117053723D01*
X180484704Y-117089362D01*
X180496435Y-117128032D01*
X180501000Y-117174388D01*
X180501000Y-117825612D01*
X180496435Y-117871968D01*
X180484704Y-117910638D01*
X180465654Y-117946277D01*
X180440017Y-117977517D01*
X180408777Y-118003154D01*
X180373138Y-118022204D01*
X180334468Y-118033935D01*
X180288112Y-118038500D01*
X179211888Y-118038500D01*
X179165532Y-118033935D01*
X179126862Y-118022204D01*
X179091223Y-118003154D01*
X179059983Y-117977517D01*
X179034346Y-117946277D01*
X179015296Y-117910638D01*
X179003565Y-117871968D01*
X178999000Y-117825612D01*
X178999000Y-117174388D01*
X179003565Y-117128032D01*
X179015296Y-117089362D01*
X179034346Y-117053723D01*
X179059983Y-117022483D01*
X179091223Y-116996846D01*
X179126862Y-116977796D01*
X179165532Y-116966065D01*
X179211888Y-116961500D01*
X180288112Y-116961500D01*
X180334468Y-116966065D01*
G37*
G36*
X183871968Y-115253565D02*
G01*
X183910638Y-115265296D01*
X183946277Y-115284346D01*
X183977517Y-115309983D01*
X184003154Y-115341223D01*
X184022204Y-115376862D01*
X184033935Y-115415532D01*
X184038500Y-115461888D01*
X184038500Y-116538112D01*
X184033935Y-116584468D01*
X184022204Y-116623138D01*
X184003154Y-116658777D01*
X183977517Y-116690017D01*
X183946277Y-116715654D01*
X183910638Y-116734704D01*
X183871968Y-116746435D01*
X183825612Y-116751000D01*
X183174388Y-116751000D01*
X183128032Y-116746435D01*
X183089362Y-116734704D01*
X183053723Y-116715654D01*
X183022483Y-116690017D01*
X182996846Y-116658777D01*
X182977796Y-116623138D01*
X182966065Y-116584468D01*
X182961500Y-116538112D01*
X182961500Y-115461888D01*
X182966065Y-115415532D01*
X182977796Y-115376862D01*
X182996846Y-115341223D01*
X183022483Y-115309983D01*
X183053723Y-115284346D01*
X183089362Y-115265296D01*
X183128032Y-115253565D01*
X183174388Y-115249000D01*
X183825612Y-115249000D01*
X183871968Y-115253565D01*
G37*
G36*
X185746968Y-115253565D02*
G01*
X185785638Y-115265296D01*
X185821277Y-115284346D01*
X185852517Y-115309983D01*
X185878154Y-115341223D01*
X185897204Y-115376862D01*
X185908935Y-115415532D01*
X185913500Y-115461888D01*
X185913500Y-116538112D01*
X185908935Y-116584468D01*
X185897204Y-116623138D01*
X185878154Y-116658777D01*
X185852517Y-116690017D01*
X185821277Y-116715654D01*
X185785638Y-116734704D01*
X185746968Y-116746435D01*
X185700612Y-116751000D01*
X185049388Y-116751000D01*
X185003032Y-116746435D01*
X184964362Y-116734704D01*
X184928723Y-116715654D01*
X184897483Y-116690017D01*
X184871846Y-116658777D01*
X184852796Y-116623138D01*
X184841065Y-116584468D01*
X184836500Y-116538112D01*
X184836500Y-115461888D01*
X184841065Y-115415532D01*
X184852796Y-115376862D01*
X184871846Y-115341223D01*
X184897483Y-115309983D01*
X184928723Y-115284346D01*
X184964362Y-115265296D01*
X185003032Y-115253565D01*
X185049388Y-115249000D01*
X185700612Y-115249000D01*
X185746968Y-115253565D01*
G37*
G36*
X187434468Y-115253565D02*
G01*
X187473138Y-115265296D01*
X187508777Y-115284346D01*
X187540017Y-115309983D01*
X187565654Y-115341223D01*
X187584704Y-115376862D01*
X187596435Y-115415532D01*
X187601000Y-115461888D01*
X187601000Y-116538112D01*
X187596435Y-116584468D01*
X187584704Y-116623138D01*
X187565654Y-116658777D01*
X187540017Y-116690017D01*
X187508777Y-116715654D01*
X187473138Y-116734704D01*
X187434468Y-116746435D01*
X187388112Y-116751000D01*
X186736888Y-116751000D01*
X186690532Y-116746435D01*
X186651862Y-116734704D01*
X186616223Y-116715654D01*
X186584983Y-116690017D01*
X186559346Y-116658777D01*
X186540296Y-116623138D01*
X186528565Y-116584468D01*
X186524000Y-116538112D01*
X186524000Y-115461888D01*
X186528565Y-115415532D01*
X186540296Y-115376862D01*
X186559346Y-115341223D01*
X186584983Y-115309983D01*
X186616223Y-115284346D01*
X186651862Y-115265296D01*
X186690532Y-115253565D01*
X186736888Y-115249000D01*
X187388112Y-115249000D01*
X187434468Y-115253565D01*
G37*
G36*
X189309468Y-115253565D02*
G01*
X189348138Y-115265296D01*
X189383777Y-115284346D01*
X189415017Y-115309983D01*
X189440654Y-115341223D01*
X189459704Y-115376862D01*
X189471435Y-115415532D01*
X189476000Y-115461888D01*
X189476000Y-116538112D01*
X189471435Y-116584468D01*
X189459704Y-116623138D01*
X189440654Y-116658777D01*
X189415017Y-116690017D01*
X189383777Y-116715654D01*
X189348138Y-116734704D01*
X189309468Y-116746435D01*
X189263112Y-116751000D01*
X188611888Y-116751000D01*
X188565532Y-116746435D01*
X188526862Y-116734704D01*
X188491223Y-116715654D01*
X188459983Y-116690017D01*
X188434346Y-116658777D01*
X188415296Y-116623138D01*
X188403565Y-116584468D01*
X188399000Y-116538112D01*
X188399000Y-115461888D01*
X188403565Y-115415532D01*
X188415296Y-115376862D01*
X188434346Y-115341223D01*
X188459983Y-115309983D01*
X188491223Y-115284346D01*
X188526862Y-115265296D01*
X188565532Y-115253565D01*
X188611888Y-115249000D01*
X189263112Y-115249000D01*
X189309468Y-115253565D01*
G37*
G36*
X177084468Y-115091065D02*
G01*
X177123138Y-115102796D01*
X177158777Y-115121846D01*
X177190017Y-115147483D01*
X177215654Y-115178723D01*
X177234704Y-115214362D01*
X177246435Y-115253032D01*
X177251000Y-115299388D01*
X177251000Y-115950612D01*
X177246435Y-115996968D01*
X177234704Y-116035638D01*
X177215654Y-116071277D01*
X177190017Y-116102517D01*
X177158777Y-116128154D01*
X177123138Y-116147204D01*
X177084468Y-116158935D01*
X177038112Y-116163500D01*
X175961888Y-116163500D01*
X175915532Y-116158935D01*
X175876862Y-116147204D01*
X175841223Y-116128154D01*
X175809983Y-116102517D01*
X175784346Y-116071277D01*
X175765296Y-116035638D01*
X175753565Y-115996968D01*
X175749000Y-115950612D01*
X175749000Y-115299388D01*
X175753565Y-115253032D01*
X175765296Y-115214362D01*
X175784346Y-115178723D01*
X175809983Y-115147483D01*
X175841223Y-115121846D01*
X175876862Y-115102796D01*
X175915532Y-115091065D01*
X175961888Y-115086500D01*
X177038112Y-115086500D01*
X177084468Y-115091065D01*
G37*
G36*
X180334468Y-115091065D02*
G01*
X180373138Y-115102796D01*
X180408777Y-115121846D01*
X180440017Y-115147483D01*
X180465654Y-115178723D01*
X180484704Y-115214362D01*
X180496435Y-115253032D01*
X180501000Y-115299388D01*
X180501000Y-115950612D01*
X180496435Y-115996968D01*
X180484704Y-116035638D01*
X180465654Y-116071277D01*
X180440017Y-116102517D01*
X180408777Y-116128154D01*
X180373138Y-116147204D01*
X180334468Y-116158935D01*
X180288112Y-116163500D01*
X179211888Y-116163500D01*
X179165532Y-116158935D01*
X179126862Y-116147204D01*
X179091223Y-116128154D01*
X179059983Y-116102517D01*
X179034346Y-116071277D01*
X179015296Y-116035638D01*
X179003565Y-115996968D01*
X178999000Y-115950612D01*
X178999000Y-115299388D01*
X179003565Y-115253032D01*
X179015296Y-115214362D01*
X179034346Y-115178723D01*
X179059983Y-115147483D01*
X179091223Y-115121846D01*
X179126862Y-115102796D01*
X179165532Y-115091065D01*
X179211888Y-115086500D01*
X180288112Y-115086500D01*
X180334468Y-115091065D01*
G37*
G36*
X163101000Y-115401000D02*
G01*
X161299000Y-115401000D01*
X161299000Y-113599000D01*
X163101000Y-113599000D01*
X163101000Y-115401000D01*
G37*
G36*
X164853512Y-113603927D02*
G01*
X165002812Y-113633624D01*
X165166784Y-113701544D01*
X165314354Y-113800147D01*
X165439853Y-113925646D01*
X165538456Y-114073216D01*
X165606376Y-114237188D01*
X165623964Y-114325612D01*
X165640877Y-114410638D01*
X165641000Y-114411259D01*
X165641000Y-114588741D01*
X165606376Y-114762812D01*
X165538456Y-114926784D01*
X165439853Y-115074354D01*
X165314354Y-115199853D01*
X165166784Y-115298456D01*
X165002812Y-115366376D01*
X164853512Y-115396073D01*
X164828742Y-115401000D01*
X164651258Y-115401000D01*
X164626488Y-115396073D01*
X164477188Y-115366376D01*
X164313216Y-115298456D01*
X164165646Y-115199853D01*
X164040147Y-115074354D01*
X163941544Y-114926784D01*
X163873624Y-114762812D01*
X163839000Y-114588741D01*
X163839000Y-114411259D01*
X163839124Y-114410638D01*
X163856036Y-114325612D01*
X163873624Y-114237188D01*
X163941544Y-114073216D01*
X164040147Y-113925646D01*
X164165646Y-113800147D01*
X164313216Y-113701544D01*
X164477188Y-113633624D01*
X164626488Y-113603927D01*
X164651258Y-113599000D01*
X164828742Y-113599000D01*
X164853512Y-113603927D01*
G37*
G36*
X169933512Y-113603927D02*
G01*
X170082812Y-113633624D01*
X170246784Y-113701544D01*
X170394354Y-113800147D01*
X170519853Y-113925646D01*
X170618456Y-114073216D01*
X170686376Y-114237188D01*
X170703964Y-114325612D01*
X170720877Y-114410638D01*
X170721000Y-114411259D01*
X170721000Y-114588741D01*
X170686376Y-114762812D01*
X170618456Y-114926784D01*
X170519853Y-115074354D01*
X170394354Y-115199853D01*
X170246784Y-115298456D01*
X170082812Y-115366376D01*
X169933512Y-115396073D01*
X169908742Y-115401000D01*
X169731258Y-115401000D01*
X169706488Y-115396073D01*
X169557188Y-115366376D01*
X169393216Y-115298456D01*
X169245646Y-115199853D01*
X169120147Y-115074354D01*
X169021544Y-114926784D01*
X168953624Y-114762812D01*
X168919000Y-114588741D01*
X168919000Y-114411259D01*
X168919124Y-114410638D01*
X168936036Y-114325612D01*
X168953624Y-114237188D01*
X169021544Y-114073216D01*
X169120147Y-113925646D01*
X169245646Y-113800147D01*
X169393216Y-113701544D01*
X169557188Y-113633624D01*
X169706488Y-113603927D01*
X169731258Y-113599000D01*
X169908742Y-113599000D01*
X169933512Y-113603927D01*
G37*
G36*
X167393512Y-113603927D02*
G01*
X167542812Y-113633624D01*
X167706784Y-113701544D01*
X167854354Y-113800147D01*
X167979853Y-113925646D01*
X168078456Y-114073216D01*
X168146376Y-114237188D01*
X168163964Y-114325612D01*
X168180877Y-114410638D01*
X168181000Y-114411259D01*
X168181000Y-114588741D01*
X168146376Y-114762812D01*
X168078456Y-114926784D01*
X167979853Y-115074354D01*
X167854354Y-115199853D01*
X167706784Y-115298456D01*
X167542812Y-115366376D01*
X167393512Y-115396073D01*
X167368742Y-115401000D01*
X167191258Y-115401000D01*
X167166488Y-115396073D01*
X167017188Y-115366376D01*
X166853216Y-115298456D01*
X166705646Y-115199853D01*
X166580147Y-115074354D01*
X166481544Y-114926784D01*
X166413624Y-114762812D01*
X166379000Y-114588741D01*
X166379000Y-114411259D01*
X166379124Y-114410638D01*
X166396036Y-114325612D01*
X166413624Y-114237188D01*
X166481544Y-114073216D01*
X166580147Y-113925646D01*
X166705646Y-113800147D01*
X166853216Y-113701544D01*
X167017188Y-113633624D01*
X167166488Y-113603927D01*
X167191258Y-113599000D01*
X167368742Y-113599000D01*
X167393512Y-113603927D01*
G37*
G36*
X150984468Y-113466065D02*
G01*
X151023138Y-113477796D01*
X151058777Y-113496846D01*
X151090017Y-113522483D01*
X151115654Y-113553723D01*
X151134704Y-113589362D01*
X151146435Y-113628032D01*
X151151000Y-113674388D01*
X151151000Y-114325612D01*
X151146435Y-114371968D01*
X151134704Y-114410638D01*
X151115654Y-114446277D01*
X151090017Y-114477517D01*
X151058777Y-114503154D01*
X151023138Y-114522204D01*
X150984468Y-114533935D01*
X150938112Y-114538500D01*
X149861888Y-114538500D01*
X149815532Y-114533935D01*
X149776862Y-114522204D01*
X149741223Y-114503154D01*
X149709983Y-114477517D01*
X149684346Y-114446277D01*
X149665296Y-114410638D01*
X149653565Y-114371968D01*
X149649000Y-114325612D01*
X149649000Y-113674388D01*
X149653565Y-113628032D01*
X149665296Y-113589362D01*
X149684346Y-113553723D01*
X149709983Y-113522483D01*
X149741223Y-113496846D01*
X149776862Y-113477796D01*
X149815532Y-113466065D01*
X149861888Y-113461500D01*
X150938112Y-113461500D01*
X150984468Y-113466065D01*
G37*
G36*
X179809468Y-111753565D02*
G01*
X179848138Y-111765296D01*
X179883777Y-111784346D01*
X179915017Y-111809983D01*
X179940654Y-111841223D01*
X179959704Y-111876862D01*
X179971435Y-111915532D01*
X179976000Y-111961888D01*
X179976000Y-113038112D01*
X179971435Y-113084468D01*
X179959704Y-113123138D01*
X179940654Y-113158777D01*
X179915017Y-113190017D01*
X179883777Y-113215654D01*
X179848138Y-113234704D01*
X179809468Y-113246435D01*
X179763112Y-113251000D01*
X179111888Y-113251000D01*
X179065532Y-113246435D01*
X179026862Y-113234704D01*
X178991223Y-113215654D01*
X178959983Y-113190017D01*
X178934346Y-113158777D01*
X178915296Y-113123138D01*
X178903565Y-113084468D01*
X178899000Y-113038112D01*
X178899000Y-111961888D01*
X178903565Y-111915532D01*
X178915296Y-111876862D01*
X178934346Y-111841223D01*
X178959983Y-111809983D01*
X178991223Y-111784346D01*
X179026862Y-111765296D01*
X179065532Y-111753565D01*
X179111888Y-111749000D01*
X179763112Y-111749000D01*
X179809468Y-111753565D01*
G37*
G36*
X177934468Y-111753565D02*
G01*
X177973138Y-111765296D01*
X178008777Y-111784346D01*
X178040017Y-111809983D01*
X178065654Y-111841223D01*
X178084704Y-111876862D01*
X178096435Y-111915532D01*
X178101000Y-111961888D01*
X178101000Y-113038112D01*
X178096435Y-113084468D01*
X178084704Y-113123138D01*
X178065654Y-113158777D01*
X178040017Y-113190017D01*
X178008777Y-113215654D01*
X177973138Y-113234704D01*
X177934468Y-113246435D01*
X177888112Y-113251000D01*
X177236888Y-113251000D01*
X177190532Y-113246435D01*
X177151862Y-113234704D01*
X177116223Y-113215654D01*
X177084983Y-113190017D01*
X177059346Y-113158777D01*
X177040296Y-113123138D01*
X177028565Y-113084468D01*
X177024000Y-113038112D01*
X177024000Y-111961888D01*
X177028565Y-111915532D01*
X177040296Y-111876862D01*
X177059346Y-111841223D01*
X177084983Y-111809983D01*
X177116223Y-111784346D01*
X177151862Y-111765296D01*
X177190532Y-111753565D01*
X177236888Y-111749000D01*
X177888112Y-111749000D01*
X177934468Y-111753565D01*
G37*
G36*
X150984468Y-111591065D02*
G01*
X151023138Y-111602796D01*
X151058777Y-111621846D01*
X151090017Y-111647483D01*
X151115654Y-111678723D01*
X151134704Y-111714362D01*
X151146435Y-111753032D01*
X151151000Y-111799388D01*
X151151000Y-112450612D01*
X151146435Y-112496968D01*
X151134704Y-112535638D01*
X151115654Y-112571277D01*
X151090017Y-112602517D01*
X151058777Y-112628154D01*
X151023138Y-112647204D01*
X150984468Y-112658935D01*
X150938112Y-112663500D01*
X149861888Y-112663500D01*
X149815532Y-112658935D01*
X149776862Y-112647204D01*
X149741223Y-112628154D01*
X149709983Y-112602517D01*
X149684346Y-112571277D01*
X149665296Y-112535638D01*
X149653565Y-112496968D01*
X149649000Y-112450612D01*
X149649000Y-111799388D01*
X149653565Y-111753032D01*
X149665296Y-111714362D01*
X149684346Y-111678723D01*
X149709983Y-111647483D01*
X149741223Y-111621846D01*
X149776862Y-111602796D01*
X149815532Y-111591065D01*
X149861888Y-111586500D01*
X150938112Y-111586500D01*
X150984468Y-111591065D01*
G37*
G36*
X189605997Y-109903051D02*
G01*
X189639652Y-109913261D01*
X189670665Y-109929838D01*
X189697851Y-109952149D01*
X189720162Y-109979335D01*
X189736739Y-110010348D01*
X189746949Y-110044003D01*
X189751000Y-110085138D01*
X189751000Y-111414862D01*
X189746949Y-111455997D01*
X189736739Y-111489652D01*
X189720162Y-111520665D01*
X189697851Y-111547851D01*
X189670665Y-111570162D01*
X189639652Y-111586739D01*
X189605997Y-111596949D01*
X189564862Y-111601000D01*
X186835138Y-111601000D01*
X186794003Y-111596949D01*
X186760348Y-111586739D01*
X186729335Y-111570162D01*
X186702149Y-111547851D01*
X186679838Y-111520665D01*
X186663261Y-111489652D01*
X186653051Y-111455997D01*
X186649000Y-111414862D01*
X186649000Y-110085138D01*
X186653051Y-110044003D01*
X186663261Y-110010348D01*
X186679838Y-109979335D01*
X186702149Y-109952149D01*
X186729335Y-109929838D01*
X186760348Y-109913261D01*
X186794003Y-109903051D01*
X186835138Y-109899000D01*
X189564862Y-109899000D01*
X189605997Y-109903051D01*
G37*
G36*
X185205997Y-109903051D02*
G01*
X185239652Y-109913261D01*
X185270665Y-109929838D01*
X185297851Y-109952149D01*
X185320162Y-109979335D01*
X185336739Y-110010348D01*
X185346949Y-110044003D01*
X185351000Y-110085138D01*
X185351000Y-111414862D01*
X185346949Y-111455997D01*
X185336739Y-111489652D01*
X185320162Y-111520665D01*
X185297851Y-111547851D01*
X185270665Y-111570162D01*
X185239652Y-111586739D01*
X185205997Y-111596949D01*
X185164862Y-111601000D01*
X182435138Y-111601000D01*
X182394003Y-111596949D01*
X182360348Y-111586739D01*
X182329335Y-111570162D01*
X182302149Y-111547851D01*
X182279838Y-111520665D01*
X182263261Y-111489652D01*
X182253051Y-111455997D01*
X182249000Y-111414862D01*
X182249000Y-110085138D01*
X182253051Y-110044003D01*
X182263261Y-110010348D01*
X182279838Y-109979335D01*
X182302149Y-109952149D01*
X182329335Y-109929838D01*
X182360348Y-109913261D01*
X182394003Y-109903051D01*
X182435138Y-109899000D01*
X185164862Y-109899000D01*
X185205997Y-109903051D01*
G37*
G36*
X172209468Y-109753565D02*
G01*
X172248138Y-109765296D01*
X172283777Y-109784346D01*
X172315017Y-109809983D01*
X172340654Y-109841223D01*
X172359704Y-109876862D01*
X172371435Y-109915532D01*
X172376000Y-109961888D01*
X172376000Y-111038112D01*
X172371435Y-111084468D01*
X172359704Y-111123138D01*
X172340654Y-111158777D01*
X172315017Y-111190017D01*
X172283777Y-111215654D01*
X172248138Y-111234704D01*
X172209468Y-111246435D01*
X172163112Y-111251000D01*
X171511888Y-111251000D01*
X171465532Y-111246435D01*
X171426862Y-111234704D01*
X171391223Y-111215654D01*
X171359983Y-111190017D01*
X171334346Y-111158777D01*
X171315296Y-111123138D01*
X171303565Y-111084468D01*
X171299000Y-111038112D01*
X171299000Y-109961888D01*
X171303565Y-109915532D01*
X171315296Y-109876862D01*
X171334346Y-109841223D01*
X171359983Y-109809983D01*
X171391223Y-109784346D01*
X171426862Y-109765296D01*
X171465532Y-109753565D01*
X171511888Y-109749000D01*
X172163112Y-109749000D01*
X172209468Y-109753565D01*
G37*
G36*
X170334468Y-109753565D02*
G01*
X170373138Y-109765296D01*
X170408777Y-109784346D01*
X170440017Y-109809983D01*
X170465654Y-109841223D01*
X170484704Y-109876862D01*
X170496435Y-109915532D01*
X170501000Y-109961888D01*
X170501000Y-111038112D01*
X170496435Y-111084468D01*
X170484704Y-111123138D01*
X170465654Y-111158777D01*
X170440017Y-111190017D01*
X170408777Y-111215654D01*
X170373138Y-111234704D01*
X170334468Y-111246435D01*
X170288112Y-111251000D01*
X169636888Y-111251000D01*
X169590532Y-111246435D01*
X169551862Y-111234704D01*
X169516223Y-111215654D01*
X169484983Y-111190017D01*
X169459346Y-111158777D01*
X169440296Y-111123138D01*
X169428565Y-111084468D01*
X169424000Y-111038112D01*
X169424000Y-109961888D01*
X169428565Y-109915532D01*
X169440296Y-109876862D01*
X169459346Y-109841223D01*
X169484983Y-109809983D01*
X169516223Y-109784346D01*
X169551862Y-109765296D01*
X169590532Y-109753565D01*
X169636888Y-109749000D01*
X170288112Y-109749000D01*
X170334468Y-109753565D01*
G37*
G36*
X146309468Y-107753565D02*
G01*
X146348138Y-107765296D01*
X146383777Y-107784346D01*
X146415017Y-107809983D01*
X146440654Y-107841223D01*
X146459704Y-107876862D01*
X146471435Y-107915532D01*
X146476000Y-107961888D01*
X146476000Y-109038112D01*
X146471435Y-109084468D01*
X146459704Y-109123138D01*
X146440654Y-109158777D01*
X146415017Y-109190017D01*
X146383777Y-109215654D01*
X146348138Y-109234704D01*
X146309468Y-109246435D01*
X146263112Y-109251000D01*
X145611888Y-109251000D01*
X145565532Y-109246435D01*
X145526862Y-109234704D01*
X145491223Y-109215654D01*
X145459983Y-109190017D01*
X145434346Y-109158777D01*
X145415296Y-109123138D01*
X145403565Y-109084468D01*
X145399000Y-109038112D01*
X145399000Y-107961888D01*
X145403565Y-107915532D01*
X145415296Y-107876862D01*
X145434346Y-107841223D01*
X145459983Y-107809983D01*
X145491223Y-107784346D01*
X145526862Y-107765296D01*
X145565532Y-107753565D01*
X145611888Y-107749000D01*
X146263112Y-107749000D01*
X146309468Y-107753565D01*
G37*
G36*
X144434468Y-107753565D02*
G01*
X144473138Y-107765296D01*
X144508777Y-107784346D01*
X144540017Y-107809983D01*
X144565654Y-107841223D01*
X144584704Y-107876862D01*
X144596435Y-107915532D01*
X144601000Y-107961888D01*
X144601000Y-109038112D01*
X144596435Y-109084468D01*
X144584704Y-109123138D01*
X144565654Y-109158777D01*
X144540017Y-109190017D01*
X144508777Y-109215654D01*
X144473138Y-109234704D01*
X144434468Y-109246435D01*
X144388112Y-109251000D01*
X143736888Y-109251000D01*
X143690532Y-109246435D01*
X143651862Y-109234704D01*
X143616223Y-109215654D01*
X143584983Y-109190017D01*
X143559346Y-109158777D01*
X143540296Y-109123138D01*
X143528565Y-109084468D01*
X143524000Y-109038112D01*
X143524000Y-107961888D01*
X143528565Y-107915532D01*
X143540296Y-107876862D01*
X143559346Y-107841223D01*
X143584983Y-107809983D01*
X143616223Y-107784346D01*
X143651862Y-107765296D01*
X143690532Y-107753565D01*
X143736888Y-107749000D01*
X144388112Y-107749000D01*
X144434468Y-107753565D01*
G37*
G36*
X174109468Y-106453565D02*
G01*
X174148138Y-106465296D01*
X174183777Y-106484346D01*
X174215017Y-106509983D01*
X174240654Y-106541223D01*
X174259704Y-106576862D01*
X174271435Y-106615532D01*
X174276000Y-106661888D01*
X174276000Y-107738112D01*
X174271435Y-107784468D01*
X174259704Y-107823138D01*
X174240654Y-107858777D01*
X174215017Y-107890017D01*
X174183777Y-107915654D01*
X174148138Y-107934704D01*
X174109468Y-107946435D01*
X174063112Y-107951000D01*
X173411888Y-107951000D01*
X173365532Y-107946435D01*
X173326862Y-107934704D01*
X173291223Y-107915654D01*
X173259983Y-107890017D01*
X173234346Y-107858777D01*
X173215296Y-107823138D01*
X173203565Y-107784468D01*
X173199000Y-107738112D01*
X173199000Y-106661888D01*
X173203565Y-106615532D01*
X173215296Y-106576862D01*
X173234346Y-106541223D01*
X173259983Y-106509983D01*
X173291223Y-106484346D01*
X173326862Y-106465296D01*
X173365532Y-106453565D01*
X173411888Y-106449000D01*
X174063112Y-106449000D01*
X174109468Y-106453565D01*
G37*
G36*
X172234468Y-106453565D02*
G01*
X172273138Y-106465296D01*
X172308777Y-106484346D01*
X172340017Y-106509983D01*
X172365654Y-106541223D01*
X172384704Y-106576862D01*
X172396435Y-106615532D01*
X172401000Y-106661888D01*
X172401000Y-107738112D01*
X172396435Y-107784468D01*
X172384704Y-107823138D01*
X172365654Y-107858777D01*
X172340017Y-107890017D01*
X172308777Y-107915654D01*
X172273138Y-107934704D01*
X172234468Y-107946435D01*
X172188112Y-107951000D01*
X171536888Y-107951000D01*
X171490532Y-107946435D01*
X171451862Y-107934704D01*
X171416223Y-107915654D01*
X171384983Y-107890017D01*
X171359346Y-107858777D01*
X171340296Y-107823138D01*
X171328565Y-107784468D01*
X171324000Y-107738112D01*
X171324000Y-106661888D01*
X171328565Y-106615532D01*
X171340296Y-106576862D01*
X171359346Y-106541223D01*
X171384983Y-106509983D01*
X171416223Y-106484346D01*
X171451862Y-106465296D01*
X171490532Y-106453565D01*
X171536888Y-106449000D01*
X172188112Y-106449000D01*
X172234468Y-106453565D01*
G37*
G36*
X188151000Y-106051000D02*
G01*
X185849000Y-106051000D01*
X185849000Y-104899000D01*
X188151000Y-104899000D01*
X188151000Y-106051000D01*
G37*
G36*
X147960999Y-105926001D02*
G01*
X146558999Y-105926001D01*
X146558999Y-104274001D01*
X147960999Y-104274001D01*
X147960999Y-105926001D01*
G37*
G36*
X143460999Y-105926001D02*
G01*
X142058999Y-105926001D01*
X142058999Y-104274001D01*
X143460999Y-104274001D01*
X143460999Y-105926001D01*
G37*
G36*
X176784468Y-104066065D02*
G01*
X176823138Y-104077796D01*
X176858777Y-104096846D01*
X176890017Y-104122483D01*
X176915654Y-104153723D01*
X176934704Y-104189362D01*
X176946435Y-104228032D01*
X176951000Y-104274388D01*
X176951000Y-104925612D01*
X176946435Y-104971968D01*
X176934704Y-105010638D01*
X176915654Y-105046277D01*
X176890017Y-105077517D01*
X176858777Y-105103154D01*
X176823138Y-105122204D01*
X176784468Y-105133935D01*
X176738112Y-105138500D01*
X175661888Y-105138500D01*
X175615532Y-105133935D01*
X175576862Y-105122204D01*
X175541223Y-105103154D01*
X175509983Y-105077517D01*
X175484346Y-105046277D01*
X175465296Y-105010638D01*
X175453565Y-104971968D01*
X175449000Y-104925612D01*
X175449000Y-104274388D01*
X175453565Y-104228032D01*
X175465296Y-104189362D01*
X175484346Y-104153723D01*
X175509983Y-104122483D01*
X175541223Y-104096846D01*
X175576862Y-104077796D01*
X175615532Y-104066065D01*
X175661888Y-104061500D01*
X176738112Y-104061500D01*
X176784468Y-104066065D01*
G37*
G36*
X170151000Y-105051000D02*
G01*
X160749000Y-105051000D01*
X160749000Y-104149000D01*
X170151000Y-104149000D01*
X170151000Y-105051000D01*
G37*
G36*
X186051000Y-104551000D02*
G01*
X184949000Y-104551000D01*
X184949000Y-103449000D01*
X186051000Y-103449000D01*
X186051000Y-104551000D01*
G37*
G36*
X189051000Y-104551000D02*
G01*
X187949000Y-104551000D01*
X187949000Y-103449000D01*
X189051000Y-103449000D01*
X189051000Y-104551000D01*
G37*
G36*
X182284468Y-103428565D02*
G01*
X182323138Y-103440296D01*
X182358777Y-103459346D01*
X182390017Y-103484983D01*
X182415654Y-103516223D01*
X182434704Y-103551862D01*
X182446435Y-103590532D01*
X182451000Y-103636888D01*
X182451000Y-104288112D01*
X182446435Y-104334468D01*
X182434704Y-104373138D01*
X182415654Y-104408777D01*
X182390017Y-104440017D01*
X182358777Y-104465654D01*
X182323138Y-104484704D01*
X182284468Y-104496435D01*
X182238112Y-104501000D01*
X181161888Y-104501000D01*
X181115532Y-104496435D01*
X181076862Y-104484704D01*
X181041223Y-104465654D01*
X181009983Y-104440017D01*
X180984346Y-104408777D01*
X180965296Y-104373138D01*
X180953565Y-104334468D01*
X180949000Y-104288112D01*
X180949000Y-103636888D01*
X180953565Y-103590532D01*
X180965296Y-103551862D01*
X180984346Y-103516223D01*
X181009983Y-103484983D01*
X181041223Y-103459346D01*
X181076862Y-103440296D01*
X181115532Y-103428565D01*
X181161888Y-103424000D01*
X182238112Y-103424000D01*
X182284468Y-103428565D01*
G37*
G36*
X155309468Y-102753565D02*
G01*
X155348138Y-102765296D01*
X155383777Y-102784346D01*
X155415017Y-102809983D01*
X155440654Y-102841223D01*
X155459704Y-102876862D01*
X155471435Y-102915532D01*
X155476000Y-102961888D01*
X155476000Y-104038112D01*
X155471435Y-104084468D01*
X155459704Y-104123138D01*
X155440654Y-104158777D01*
X155415017Y-104190017D01*
X155383777Y-104215654D01*
X155348138Y-104234704D01*
X155309468Y-104246435D01*
X155263112Y-104251000D01*
X154611888Y-104251000D01*
X154565532Y-104246435D01*
X154526862Y-104234704D01*
X154491223Y-104215654D01*
X154459983Y-104190017D01*
X154434346Y-104158777D01*
X154415296Y-104123138D01*
X154403565Y-104084468D01*
X154399000Y-104038112D01*
X154399000Y-102961888D01*
X154403565Y-102915532D01*
X154415296Y-102876862D01*
X154434346Y-102841223D01*
X154459983Y-102809983D01*
X154491223Y-102784346D01*
X154526862Y-102765296D01*
X154565532Y-102753565D01*
X154611888Y-102749000D01*
X155263112Y-102749000D01*
X155309468Y-102753565D01*
G37*
G36*
X153434468Y-102753565D02*
G01*
X153473138Y-102765296D01*
X153508777Y-102784346D01*
X153540017Y-102809983D01*
X153565654Y-102841223D01*
X153584704Y-102876862D01*
X153596435Y-102915532D01*
X153601000Y-102961888D01*
X153601000Y-104038112D01*
X153596435Y-104084468D01*
X153584704Y-104123138D01*
X153565654Y-104158777D01*
X153540017Y-104190017D01*
X153508777Y-104215654D01*
X153473138Y-104234704D01*
X153434468Y-104246435D01*
X153388112Y-104251000D01*
X152736888Y-104251000D01*
X152690532Y-104246435D01*
X152651862Y-104234704D01*
X152616223Y-104215654D01*
X152584983Y-104190017D01*
X152559346Y-104158777D01*
X152540296Y-104123138D01*
X152528565Y-104084468D01*
X152524000Y-104038112D01*
X152524000Y-102961888D01*
X152528565Y-102915532D01*
X152540296Y-102876862D01*
X152559346Y-102841223D01*
X152584983Y-102809983D01*
X152616223Y-102784346D01*
X152651862Y-102765296D01*
X152690532Y-102753565D01*
X152736888Y-102749000D01*
X153388112Y-102749000D01*
X153434468Y-102753565D01*
G37*
G36*
X176784468Y-102191065D02*
G01*
X176823138Y-102202796D01*
X176858777Y-102221846D01*
X176890017Y-102247483D01*
X176915654Y-102278723D01*
X176934704Y-102314362D01*
X176946435Y-102353032D01*
X176951000Y-102399388D01*
X176951000Y-103050612D01*
X176946435Y-103096968D01*
X176934704Y-103135638D01*
X176915654Y-103171277D01*
X176890017Y-103202517D01*
X176858777Y-103228154D01*
X176823138Y-103247204D01*
X176784468Y-103258935D01*
X176738112Y-103263500D01*
X175661888Y-103263500D01*
X175615532Y-103258935D01*
X175576862Y-103247204D01*
X175541223Y-103228154D01*
X175509983Y-103202517D01*
X175484346Y-103171277D01*
X175465296Y-103135638D01*
X175453565Y-103096968D01*
X175449000Y-103050612D01*
X175449000Y-102399388D01*
X175453565Y-102353032D01*
X175465296Y-102314362D01*
X175484346Y-102278723D01*
X175509983Y-102247483D01*
X175541223Y-102221846D01*
X175576862Y-102202796D01*
X175615532Y-102191065D01*
X175661888Y-102186500D01*
X176738112Y-102186500D01*
X176784468Y-102191065D01*
G37*
G36*
X170151000Y-103251000D02*
G01*
X160749000Y-103251000D01*
X160749000Y-102349000D01*
X170151000Y-102349000D01*
X170151000Y-103251000D01*
G37*
G36*
X188151000Y-103101000D02*
G01*
X185849000Y-103101000D01*
X185849000Y-101949000D01*
X188151000Y-101949000D01*
X188151000Y-103101000D01*
G37*
G36*
X182284468Y-101553565D02*
G01*
X182323138Y-101565296D01*
X182358777Y-101584346D01*
X182390017Y-101609983D01*
X182415654Y-101641223D01*
X182434704Y-101676862D01*
X182446435Y-101715532D01*
X182451000Y-101761888D01*
X182451000Y-102413112D01*
X182446435Y-102459468D01*
X182434704Y-102498138D01*
X182415654Y-102533777D01*
X182390017Y-102565017D01*
X182358777Y-102590654D01*
X182323138Y-102609704D01*
X182284468Y-102621435D01*
X182238112Y-102626000D01*
X181161888Y-102626000D01*
X181115532Y-102621435D01*
X181076862Y-102609704D01*
X181041223Y-102590654D01*
X181009983Y-102565017D01*
X180984346Y-102533777D01*
X180965296Y-102498138D01*
X180953565Y-102459468D01*
X180949000Y-102413112D01*
X180949000Y-101761888D01*
X180953565Y-101715532D01*
X180965296Y-101676862D01*
X180984346Y-101641223D01*
X181009983Y-101609983D01*
X181041223Y-101584346D01*
X181076862Y-101565296D01*
X181115532Y-101553565D01*
X181161888Y-101549000D01*
X182238112Y-101549000D01*
X182284468Y-101553565D01*
G37*
G36*
X171551000Y-102301000D02*
G01*
X170649000Y-102301000D01*
X170649000Y-92899000D01*
X171551000Y-92899000D01*
X171551000Y-102301000D01*
G37*
G36*
X160251000Y-102301000D02*
G01*
X159349000Y-102301000D01*
X159349000Y-92899000D01*
X160251000Y-92899000D01*
X160251000Y-102301000D01*
G37*
G36*
X173351000Y-102301000D02*
G01*
X172449000Y-102301000D01*
X172449000Y-92899000D01*
X173351000Y-92899000D01*
X173351000Y-102301000D01*
G37*
G36*
X158451000Y-102301000D02*
G01*
X157549000Y-102301000D01*
X157549000Y-92899000D01*
X158451000Y-92899000D01*
X158451000Y-102301000D01*
G37*
G36*
X176784468Y-100441065D02*
G01*
X176823138Y-100452796D01*
X176858777Y-100471846D01*
X176890017Y-100497483D01*
X176915654Y-100528723D01*
X176934704Y-100564362D01*
X176946435Y-100603032D01*
X176951000Y-100649388D01*
X176951000Y-101300612D01*
X176946435Y-101346968D01*
X176934704Y-101385638D01*
X176915654Y-101421277D01*
X176890017Y-101452517D01*
X176858777Y-101478154D01*
X176823138Y-101497204D01*
X176784468Y-101508935D01*
X176738112Y-101513500D01*
X175661888Y-101513500D01*
X175615532Y-101508935D01*
X175576862Y-101497204D01*
X175541223Y-101478154D01*
X175509983Y-101452517D01*
X175484346Y-101421277D01*
X175465296Y-101385638D01*
X175453565Y-101346968D01*
X175449000Y-101300612D01*
X175449000Y-100649388D01*
X175453565Y-100603032D01*
X175465296Y-100564362D01*
X175484346Y-100528723D01*
X175509983Y-100497483D01*
X175541223Y-100471846D01*
X175576862Y-100452796D01*
X175615532Y-100441065D01*
X175661888Y-100436500D01*
X176738112Y-100436500D01*
X176784468Y-100441065D01*
G37*
G36*
X153434468Y-99753565D02*
G01*
X153473138Y-99765296D01*
X153508777Y-99784346D01*
X153540017Y-99809983D01*
X153565654Y-99841223D01*
X153584704Y-99876862D01*
X153596435Y-99915532D01*
X153601000Y-99961888D01*
X153601000Y-101038112D01*
X153596435Y-101084468D01*
X153584704Y-101123138D01*
X153565654Y-101158777D01*
X153540017Y-101190017D01*
X153508777Y-101215654D01*
X153473138Y-101234704D01*
X153434468Y-101246435D01*
X153388112Y-101251000D01*
X152736888Y-101251000D01*
X152690532Y-101246435D01*
X152651862Y-101234704D01*
X152616223Y-101215654D01*
X152584983Y-101190017D01*
X152559346Y-101158777D01*
X152540296Y-101123138D01*
X152528565Y-101084468D01*
X152524000Y-101038112D01*
X152524000Y-99961888D01*
X152528565Y-99915532D01*
X152540296Y-99876862D01*
X152559346Y-99841223D01*
X152584983Y-99809983D01*
X152616223Y-99784346D01*
X152651862Y-99765296D01*
X152690532Y-99753565D01*
X152736888Y-99749000D01*
X153388112Y-99749000D01*
X153434468Y-99753565D01*
G37*
G36*
X155309468Y-99753565D02*
G01*
X155348138Y-99765296D01*
X155383777Y-99784346D01*
X155415017Y-99809983D01*
X155440654Y-99841223D01*
X155459704Y-99876862D01*
X155471435Y-99915532D01*
X155476000Y-99961888D01*
X155476000Y-101038112D01*
X155471435Y-101084468D01*
X155459704Y-101123138D01*
X155440654Y-101158777D01*
X155415017Y-101190017D01*
X155383777Y-101215654D01*
X155348138Y-101234704D01*
X155309468Y-101246435D01*
X155263112Y-101251000D01*
X154611888Y-101251000D01*
X154565532Y-101246435D01*
X154526862Y-101234704D01*
X154491223Y-101215654D01*
X154459983Y-101190017D01*
X154434346Y-101158777D01*
X154415296Y-101123138D01*
X154403565Y-101084468D01*
X154399000Y-101038112D01*
X154399000Y-99961888D01*
X154403565Y-99915532D01*
X154415296Y-99876862D01*
X154434346Y-99841223D01*
X154459983Y-99809983D01*
X154491223Y-99784346D01*
X154526862Y-99765296D01*
X154565532Y-99753565D01*
X154611888Y-99749000D01*
X155263112Y-99749000D01*
X155309468Y-99753565D01*
G37*
G36*
X168801000Y-100951000D02*
G01*
X167099000Y-100951000D01*
X167099000Y-99249000D01*
X168801000Y-99249000D01*
X168801000Y-100951000D01*
G37*
G36*
X166301000Y-100951000D02*
G01*
X164599000Y-100951000D01*
X164599000Y-99249000D01*
X166301000Y-99249000D01*
X166301000Y-100951000D01*
G37*
G36*
X163801000Y-100951000D02*
G01*
X162099000Y-100951000D01*
X162099000Y-99249000D01*
X163801000Y-99249000D01*
X163801000Y-100951000D01*
G37*
G36*
X176784468Y-98566065D02*
G01*
X176823138Y-98577796D01*
X176858777Y-98596846D01*
X176890017Y-98622483D01*
X176915654Y-98653723D01*
X176934704Y-98689362D01*
X176946435Y-98728032D01*
X176951000Y-98774388D01*
X176951000Y-99425612D01*
X176946435Y-99471968D01*
X176934704Y-99510638D01*
X176915654Y-99546277D01*
X176890017Y-99577517D01*
X176858777Y-99603154D01*
X176823138Y-99622204D01*
X176784468Y-99633935D01*
X176738112Y-99638500D01*
X175661888Y-99638500D01*
X175615532Y-99633935D01*
X175576862Y-99622204D01*
X175541223Y-99603154D01*
X175509983Y-99577517D01*
X175484346Y-99546277D01*
X175465296Y-99510638D01*
X175453565Y-99471968D01*
X175449000Y-99425612D01*
X175449000Y-98774388D01*
X175453565Y-98728032D01*
X175465296Y-98689362D01*
X175484346Y-98653723D01*
X175509983Y-98622483D01*
X175541223Y-98596846D01*
X175576862Y-98577796D01*
X175615532Y-98566065D01*
X175661888Y-98561500D01*
X176738112Y-98561500D01*
X176784468Y-98566065D01*
G37*
G36*
X187613512Y-96843927D02*
G01*
X187762812Y-96873624D01*
X187926784Y-96941544D01*
X188074354Y-97040147D01*
X188199853Y-97165646D01*
X188298456Y-97313216D01*
X188366376Y-97477188D01*
X188401000Y-97651259D01*
X188401000Y-97828741D01*
X188366376Y-98002812D01*
X188298456Y-98166784D01*
X188199853Y-98314354D01*
X188074354Y-98439853D01*
X187926784Y-98538456D01*
X187762812Y-98606376D01*
X187613512Y-98636073D01*
X187588742Y-98641000D01*
X187411258Y-98641000D01*
X187386488Y-98636073D01*
X187237188Y-98606376D01*
X187073216Y-98538456D01*
X186925646Y-98439853D01*
X186800147Y-98314354D01*
X186701544Y-98166784D01*
X186633624Y-98002812D01*
X186599000Y-97828741D01*
X186599000Y-97651259D01*
X186633624Y-97477188D01*
X186701544Y-97313216D01*
X186800147Y-97165646D01*
X186925646Y-97040147D01*
X187073216Y-96941544D01*
X187237188Y-96873624D01*
X187386488Y-96843927D01*
X187411258Y-96839000D01*
X187588742Y-96839000D01*
X187613512Y-96843927D01*
G37*
G36*
X168801000Y-98451000D02*
G01*
X167099000Y-98451000D01*
X167099000Y-96749000D01*
X168801000Y-96749000D01*
X168801000Y-98451000D01*
G37*
G36*
X163801000Y-98451000D02*
G01*
X162099000Y-98451000D01*
X162099000Y-96749000D01*
X163801000Y-96749000D01*
X163801000Y-98451000D01*
G37*
G36*
X166301000Y-98451000D02*
G01*
X164599000Y-98451000D01*
X164599000Y-96749000D01*
X166301000Y-96749000D01*
X166301000Y-98451000D01*
G37*
G36*
X155309468Y-96753565D02*
G01*
X155348138Y-96765296D01*
X155383777Y-96784346D01*
X155415017Y-96809983D01*
X155440654Y-96841223D01*
X155459704Y-96876862D01*
X155471435Y-96915532D01*
X155476000Y-96961888D01*
X155476000Y-98038112D01*
X155471435Y-98084468D01*
X155459704Y-98123138D01*
X155440654Y-98158777D01*
X155415017Y-98190017D01*
X155383777Y-98215654D01*
X155348138Y-98234704D01*
X155309468Y-98246435D01*
X155263112Y-98251000D01*
X154611888Y-98251000D01*
X154565532Y-98246435D01*
X154526862Y-98234704D01*
X154491223Y-98215654D01*
X154459983Y-98190017D01*
X154434346Y-98158777D01*
X154415296Y-98123138D01*
X154403565Y-98084468D01*
X154399000Y-98038112D01*
X154399000Y-96961888D01*
X154403565Y-96915532D01*
X154415296Y-96876862D01*
X154434346Y-96841223D01*
X154459983Y-96809983D01*
X154491223Y-96784346D01*
X154526862Y-96765296D01*
X154565532Y-96753565D01*
X154611888Y-96749000D01*
X155263112Y-96749000D01*
X155309468Y-96753565D01*
G37*
G36*
X153434468Y-96753565D02*
G01*
X153473138Y-96765296D01*
X153508777Y-96784346D01*
X153540017Y-96809983D01*
X153565654Y-96841223D01*
X153584704Y-96876862D01*
X153596435Y-96915532D01*
X153601000Y-96961888D01*
X153601000Y-98038112D01*
X153596435Y-98084468D01*
X153584704Y-98123138D01*
X153565654Y-98158777D01*
X153540017Y-98190017D01*
X153508777Y-98215654D01*
X153473138Y-98234704D01*
X153434468Y-98246435D01*
X153388112Y-98251000D01*
X152736888Y-98251000D01*
X152690532Y-98246435D01*
X152651862Y-98234704D01*
X152616223Y-98215654D01*
X152584983Y-98190017D01*
X152559346Y-98158777D01*
X152540296Y-98123138D01*
X152528565Y-98084468D01*
X152524000Y-98038112D01*
X152524000Y-96961888D01*
X152528565Y-96915532D01*
X152540296Y-96876862D01*
X152559346Y-96841223D01*
X152584983Y-96809983D01*
X152616223Y-96784346D01*
X152651862Y-96765296D01*
X152690532Y-96753565D01*
X152736888Y-96749000D01*
X153388112Y-96749000D01*
X153434468Y-96753565D01*
G37*
G36*
X147960999Y-97976001D02*
G01*
X146558999Y-97976001D01*
X146558999Y-96324001D01*
X147960999Y-96324001D01*
X147960999Y-97976001D01*
G37*
G36*
X143460999Y-97976001D02*
G01*
X142058999Y-97976001D01*
X142058999Y-96324001D01*
X143460999Y-96324001D01*
X143460999Y-97976001D01*
G37*
G36*
X187613512Y-94303927D02*
G01*
X187762812Y-94333624D01*
X187926784Y-94401544D01*
X188074354Y-94500147D01*
X188199853Y-94625646D01*
X188298456Y-94773216D01*
X188366376Y-94937188D01*
X188395671Y-95084468D01*
X188401000Y-95111258D01*
X188401000Y-95288742D01*
X188396073Y-95313512D01*
X188366376Y-95462812D01*
X188298456Y-95626784D01*
X188199853Y-95774354D01*
X188074354Y-95899853D01*
X187926784Y-95998456D01*
X187762812Y-96066376D01*
X187613512Y-96096073D01*
X187588742Y-96101000D01*
X187411258Y-96101000D01*
X187386488Y-96096073D01*
X187237188Y-96066376D01*
X187073216Y-95998456D01*
X186925646Y-95899853D01*
X186800147Y-95774354D01*
X186701544Y-95626784D01*
X186633624Y-95462812D01*
X186603927Y-95313512D01*
X186599000Y-95288742D01*
X186599000Y-95111258D01*
X186604329Y-95084468D01*
X186633624Y-94937188D01*
X186701544Y-94773216D01*
X186800147Y-94625646D01*
X186925646Y-94500147D01*
X187073216Y-94401544D01*
X187237188Y-94333624D01*
X187386488Y-94303927D01*
X187411258Y-94299000D01*
X187588742Y-94299000D01*
X187613512Y-94303927D01*
G37*
G36*
X166301000Y-95951000D02*
G01*
X164599000Y-95951000D01*
X164599000Y-94249000D01*
X166301000Y-94249000D01*
X166301000Y-95951000D01*
G37*
G36*
X168801000Y-95951000D02*
G01*
X167099000Y-95951000D01*
X167099000Y-94249000D01*
X168801000Y-94249000D01*
X168801000Y-95951000D01*
G37*
G36*
X163801000Y-95951000D02*
G01*
X162099000Y-95951000D01*
X162099000Y-94249000D01*
X163801000Y-94249000D01*
X163801000Y-95951000D01*
G37*
G36*
X155309468Y-93753565D02*
G01*
X155348138Y-93765296D01*
X155383777Y-93784346D01*
X155415017Y-93809983D01*
X155440654Y-93841223D01*
X155459704Y-93876862D01*
X155471435Y-93915532D01*
X155476000Y-93961888D01*
X155476000Y-95038112D01*
X155471435Y-95084468D01*
X155459704Y-95123138D01*
X155440654Y-95158777D01*
X155415017Y-95190017D01*
X155383777Y-95215654D01*
X155348138Y-95234704D01*
X155309468Y-95246435D01*
X155263112Y-95251000D01*
X154611888Y-95251000D01*
X154565532Y-95246435D01*
X154526862Y-95234704D01*
X154491223Y-95215654D01*
X154459983Y-95190017D01*
X154434346Y-95158777D01*
X154415296Y-95123138D01*
X154403565Y-95084468D01*
X154399000Y-95038112D01*
X154399000Y-93961888D01*
X154403565Y-93915532D01*
X154415296Y-93876862D01*
X154434346Y-93841223D01*
X154459983Y-93809983D01*
X154491223Y-93784346D01*
X154526862Y-93765296D01*
X154565532Y-93753565D01*
X154611888Y-93749000D01*
X155263112Y-93749000D01*
X155309468Y-93753565D01*
G37*
G36*
X153434468Y-93753565D02*
G01*
X153473138Y-93765296D01*
X153508777Y-93784346D01*
X153540017Y-93809983D01*
X153565654Y-93841223D01*
X153584704Y-93876862D01*
X153596435Y-93915532D01*
X153601000Y-93961888D01*
X153601000Y-95038112D01*
X153596435Y-95084468D01*
X153584704Y-95123138D01*
X153565654Y-95158777D01*
X153540017Y-95190017D01*
X153508777Y-95215654D01*
X153473138Y-95234704D01*
X153434468Y-95246435D01*
X153388112Y-95251000D01*
X152736888Y-95251000D01*
X152690532Y-95246435D01*
X152651862Y-95234704D01*
X152616223Y-95215654D01*
X152584983Y-95190017D01*
X152559346Y-95158777D01*
X152540296Y-95123138D01*
X152528565Y-95084468D01*
X152524000Y-95038112D01*
X152524000Y-93961888D01*
X152528565Y-93915532D01*
X152540296Y-93876862D01*
X152559346Y-93841223D01*
X152584983Y-93809983D01*
X152616223Y-93784346D01*
X152651862Y-93765296D01*
X152690532Y-93753565D01*
X152736888Y-93749000D01*
X153388112Y-93749000D01*
X153434468Y-93753565D01*
G37*
G36*
X143996968Y-92753565D02*
G01*
X144035638Y-92765296D01*
X144071277Y-92784346D01*
X144102517Y-92809983D01*
X144128154Y-92841223D01*
X144147204Y-92876862D01*
X144158935Y-92915532D01*
X144163500Y-92961888D01*
X144163500Y-94038112D01*
X144158935Y-94084468D01*
X144147204Y-94123138D01*
X144128154Y-94158777D01*
X144102517Y-94190017D01*
X144071277Y-94215654D01*
X144035638Y-94234704D01*
X143996968Y-94246435D01*
X143950612Y-94251000D01*
X143299388Y-94251000D01*
X143253032Y-94246435D01*
X143214362Y-94234704D01*
X143178723Y-94215654D01*
X143147483Y-94190017D01*
X143121846Y-94158777D01*
X143102796Y-94123138D01*
X143091065Y-94084468D01*
X143086500Y-94038112D01*
X143086500Y-92961888D01*
X143091065Y-92915532D01*
X143102796Y-92876862D01*
X143121846Y-92841223D01*
X143147483Y-92809983D01*
X143178723Y-92784346D01*
X143214362Y-92765296D01*
X143253032Y-92753565D01*
X143299388Y-92749000D01*
X143950612Y-92749000D01*
X143996968Y-92753565D01*
G37*
G36*
X145871968Y-92753565D02*
G01*
X145910638Y-92765296D01*
X145946277Y-92784346D01*
X145977517Y-92809983D01*
X146003154Y-92841223D01*
X146022204Y-92876862D01*
X146033935Y-92915532D01*
X146038500Y-92961888D01*
X146038500Y-94038112D01*
X146033935Y-94084468D01*
X146022204Y-94123138D01*
X146003154Y-94158777D01*
X145977517Y-94190017D01*
X145946277Y-94215654D01*
X145910638Y-94234704D01*
X145871968Y-94246435D01*
X145825612Y-94251000D01*
X145174388Y-94251000D01*
X145128032Y-94246435D01*
X145089362Y-94234704D01*
X145053723Y-94215654D01*
X145022483Y-94190017D01*
X144996846Y-94158777D01*
X144977796Y-94123138D01*
X144966065Y-94084468D01*
X144961500Y-94038112D01*
X144961500Y-92961888D01*
X144966065Y-92915532D01*
X144977796Y-92876862D01*
X144996846Y-92841223D01*
X145022483Y-92809983D01*
X145053723Y-92784346D01*
X145089362Y-92765296D01*
X145128032Y-92753565D01*
X145174388Y-92749000D01*
X145825612Y-92749000D01*
X145871968Y-92753565D01*
G37*
G36*
X187613512Y-91763927D02*
G01*
X187762812Y-91793624D01*
X187926784Y-91861544D01*
X188074354Y-91960147D01*
X188199853Y-92085646D01*
X188298456Y-92233216D01*
X188366376Y-92397188D01*
X188396073Y-92546488D01*
X188401000Y-92571258D01*
X188401000Y-92748742D01*
X188399919Y-92754174D01*
X188366376Y-92922812D01*
X188298456Y-93086784D01*
X188199853Y-93234354D01*
X188074354Y-93359853D01*
X187926784Y-93458456D01*
X187762812Y-93526376D01*
X187613512Y-93556073D01*
X187588742Y-93561000D01*
X187411258Y-93561000D01*
X187386488Y-93556073D01*
X187237188Y-93526376D01*
X187073216Y-93458456D01*
X186925646Y-93359853D01*
X186800147Y-93234354D01*
X186701544Y-93086784D01*
X186633624Y-92922812D01*
X186600081Y-92754174D01*
X186599000Y-92748742D01*
X186599000Y-92571258D01*
X186603927Y-92546488D01*
X186633624Y-92397188D01*
X186701544Y-92233216D01*
X186800147Y-92085646D01*
X186925646Y-91960147D01*
X187073216Y-91861544D01*
X187237188Y-91793624D01*
X187386488Y-91763927D01*
X187411258Y-91759000D01*
X187588742Y-91759000D01*
X187613512Y-91763927D01*
G37*
G36*
X170151000Y-92851000D02*
G01*
X160749000Y-92851000D01*
X160749000Y-91949000D01*
X170151000Y-91949000D01*
X170151000Y-92851000D01*
G37*
G36*
X153371968Y-90753565D02*
G01*
X153410638Y-90765296D01*
X153446277Y-90784346D01*
X153477517Y-90809983D01*
X153503154Y-90841223D01*
X153522204Y-90876862D01*
X153533935Y-90915532D01*
X153538500Y-90961888D01*
X153538500Y-92038112D01*
X153533935Y-92084468D01*
X153522204Y-92123138D01*
X153503154Y-92158777D01*
X153477517Y-92190017D01*
X153446277Y-92215654D01*
X153410638Y-92234704D01*
X153371968Y-92246435D01*
X153325612Y-92251000D01*
X152674388Y-92251000D01*
X152628032Y-92246435D01*
X152589362Y-92234704D01*
X152553723Y-92215654D01*
X152522483Y-92190017D01*
X152496846Y-92158777D01*
X152477796Y-92123138D01*
X152466065Y-92084468D01*
X152461500Y-92038112D01*
X152461500Y-90961888D01*
X152466065Y-90915532D01*
X152477796Y-90876862D01*
X152496846Y-90841223D01*
X152522483Y-90809983D01*
X152553723Y-90784346D01*
X152589362Y-90765296D01*
X152628032Y-90753565D01*
X152674388Y-90749000D01*
X153325612Y-90749000D01*
X153371968Y-90753565D01*
G37*
G36*
X155246968Y-90753565D02*
G01*
X155285638Y-90765296D01*
X155321277Y-90784346D01*
X155352517Y-90809983D01*
X155378154Y-90841223D01*
X155397204Y-90876862D01*
X155408935Y-90915532D01*
X155413500Y-90961888D01*
X155413500Y-92038112D01*
X155408935Y-92084468D01*
X155397204Y-92123138D01*
X155378154Y-92158777D01*
X155352517Y-92190017D01*
X155321277Y-92215654D01*
X155285638Y-92234704D01*
X155246968Y-92246435D01*
X155200612Y-92251000D01*
X154549388Y-92251000D01*
X154503032Y-92246435D01*
X154464362Y-92234704D01*
X154428723Y-92215654D01*
X154397483Y-92190017D01*
X154371846Y-92158777D01*
X154352796Y-92123138D01*
X154341065Y-92084468D01*
X154336500Y-92038112D01*
X154336500Y-90961888D01*
X154341065Y-90915532D01*
X154352796Y-90876862D01*
X154371846Y-90841223D01*
X154397483Y-90809983D01*
X154428723Y-90784346D01*
X154464362Y-90765296D01*
X154503032Y-90753565D01*
X154549388Y-90749000D01*
X155200612Y-90749000D01*
X155246968Y-90753565D01*
G37*
G36*
X170151000Y-91151000D02*
G01*
X160749000Y-91151000D01*
X160749000Y-90249000D01*
X170151000Y-90249000D01*
X170151000Y-91151000D01*
G37*
G36*
X187613512Y-89223927D02*
G01*
X187762812Y-89253624D01*
X187926784Y-89321544D01*
X188074354Y-89420147D01*
X188199853Y-89545646D01*
X188298456Y-89693216D01*
X188366376Y-89857188D01*
X188401000Y-90031259D01*
X188401000Y-90208741D01*
X188366376Y-90382812D01*
X188298456Y-90546784D01*
X188199853Y-90694354D01*
X188074354Y-90819853D01*
X187926784Y-90918456D01*
X187762812Y-90986376D01*
X187613512Y-91016073D01*
X187588742Y-91021000D01*
X187411258Y-91021000D01*
X187386488Y-91016073D01*
X187237188Y-90986376D01*
X187073216Y-90918456D01*
X186925646Y-90819853D01*
X186800147Y-90694354D01*
X186701544Y-90546784D01*
X186633624Y-90382812D01*
X186599000Y-90208741D01*
X186599000Y-90031259D01*
X186633624Y-89857188D01*
X186701544Y-89693216D01*
X186800147Y-89545646D01*
X186925646Y-89420147D01*
X187073216Y-89321544D01*
X187237188Y-89253624D01*
X187386488Y-89223927D01*
X187411258Y-89219000D01*
X187588742Y-89219000D01*
X187613512Y-89223927D01*
G37*
G36*
X147951000Y-90801000D02*
G01*
X146549000Y-90801000D01*
X146549000Y-89149000D01*
X147951000Y-89149000D01*
X147951000Y-90801000D01*
G37*
G36*
X143451000Y-90801000D02*
G01*
X142049000Y-90801000D01*
X142049000Y-89149000D01*
X143451000Y-89149000D01*
X143451000Y-90801000D01*
G37*
G36*
X187613512Y-86683927D02*
G01*
X187762812Y-86713624D01*
X187926784Y-86781544D01*
X188074354Y-86880147D01*
X188199853Y-87005646D01*
X188298456Y-87153216D01*
X188366376Y-87317188D01*
X188401000Y-87491259D01*
X188401000Y-87668741D01*
X188366376Y-87842812D01*
X188298456Y-88006784D01*
X188199853Y-88154354D01*
X188074354Y-88279853D01*
X187926784Y-88378456D01*
X187762812Y-88446376D01*
X187613512Y-88476073D01*
X187588742Y-88481000D01*
X187411258Y-88481000D01*
X187386488Y-88476073D01*
X187237188Y-88446376D01*
X187073216Y-88378456D01*
X186925646Y-88279853D01*
X186800147Y-88154354D01*
X186701544Y-88006784D01*
X186633624Y-87842812D01*
X186599000Y-87668741D01*
X186599000Y-87491259D01*
X186633624Y-87317188D01*
X186701544Y-87153216D01*
X186800147Y-87005646D01*
X186925646Y-86880147D01*
X187073216Y-86781544D01*
X187237188Y-86713624D01*
X187386488Y-86683927D01*
X187411258Y-86679000D01*
X187588742Y-86679000D01*
X187613512Y-86683927D01*
G37*
G36*
X169733512Y-84603927D02*
G01*
X169882812Y-84633624D01*
X170046784Y-84701544D01*
X170194354Y-84800147D01*
X170319853Y-84925646D01*
X170418456Y-85073216D01*
X170486376Y-85237188D01*
X170521000Y-85411259D01*
X170521000Y-85588741D01*
X170486376Y-85762812D01*
X170418456Y-85926784D01*
X170319853Y-86074354D01*
X170194354Y-86199853D01*
X170046784Y-86298456D01*
X169882812Y-86366376D01*
X169733512Y-86396073D01*
X169708742Y-86401000D01*
X169531258Y-86401000D01*
X169506488Y-86396073D01*
X169357188Y-86366376D01*
X169193216Y-86298456D01*
X169045646Y-86199853D01*
X168920147Y-86074354D01*
X168821544Y-85926784D01*
X168753624Y-85762812D01*
X168719000Y-85588741D01*
X168719000Y-85411259D01*
X168753624Y-85237188D01*
X168821544Y-85073216D01*
X168920147Y-84925646D01*
X169045646Y-84800147D01*
X169193216Y-84701544D01*
X169357188Y-84633624D01*
X169506488Y-84603927D01*
X169531258Y-84599000D01*
X169708742Y-84599000D01*
X169733512Y-84603927D01*
G37*
G36*
X167193512Y-84603927D02*
G01*
X167342812Y-84633624D01*
X167506784Y-84701544D01*
X167654354Y-84800147D01*
X167779853Y-84925646D01*
X167878456Y-85073216D01*
X167946376Y-85237188D01*
X167981000Y-85411259D01*
X167981000Y-85588741D01*
X167946376Y-85762812D01*
X167878456Y-85926784D01*
X167779853Y-86074354D01*
X167654354Y-86199853D01*
X167506784Y-86298456D01*
X167342812Y-86366376D01*
X167193512Y-86396073D01*
X167168742Y-86401000D01*
X166991258Y-86401000D01*
X166966488Y-86396073D01*
X166817188Y-86366376D01*
X166653216Y-86298456D01*
X166505646Y-86199853D01*
X166380147Y-86074354D01*
X166281544Y-85926784D01*
X166213624Y-85762812D01*
X166179000Y-85588741D01*
X166179000Y-85411259D01*
X166213624Y-85237188D01*
X166281544Y-85073216D01*
X166380147Y-84925646D01*
X166505646Y-84800147D01*
X166653216Y-84701544D01*
X166817188Y-84633624D01*
X166966488Y-84603927D01*
X166991258Y-84599000D01*
X167168742Y-84599000D01*
X167193512Y-84603927D01*
G37*
G36*
X172273512Y-84603927D02*
G01*
X172422812Y-84633624D01*
X172586784Y-84701544D01*
X172734354Y-84800147D01*
X172859853Y-84925646D01*
X172958456Y-85073216D01*
X173026376Y-85237188D01*
X173061000Y-85411259D01*
X173061000Y-85588741D01*
X173026376Y-85762812D01*
X172958456Y-85926784D01*
X172859853Y-86074354D01*
X172734354Y-86199853D01*
X172586784Y-86298456D01*
X172422812Y-86366376D01*
X172273512Y-86396073D01*
X172248742Y-86401000D01*
X172071258Y-86401000D01*
X172046488Y-86396073D01*
X171897188Y-86366376D01*
X171733216Y-86298456D01*
X171585646Y-86199853D01*
X171460147Y-86074354D01*
X171361544Y-85926784D01*
X171293624Y-85762812D01*
X171259000Y-85588741D01*
X171259000Y-85411259D01*
X171293624Y-85237188D01*
X171361544Y-85073216D01*
X171460147Y-84925646D01*
X171585646Y-84800147D01*
X171733216Y-84701544D01*
X171897188Y-84633624D01*
X172046488Y-84603927D01*
X172071258Y-84599000D01*
X172248742Y-84599000D01*
X172273512Y-84603927D01*
G37*
G36*
X174813512Y-84603927D02*
G01*
X174962812Y-84633624D01*
X175126784Y-84701544D01*
X175274354Y-84800147D01*
X175399853Y-84925646D01*
X175498456Y-85073216D01*
X175566376Y-85237188D01*
X175601000Y-85411259D01*
X175601000Y-85588741D01*
X175566376Y-85762812D01*
X175498456Y-85926784D01*
X175399853Y-86074354D01*
X175274354Y-86199853D01*
X175126784Y-86298456D01*
X174962812Y-86366376D01*
X174813512Y-86396073D01*
X174788742Y-86401000D01*
X174611258Y-86401000D01*
X174586488Y-86396073D01*
X174437188Y-86366376D01*
X174273216Y-86298456D01*
X174125646Y-86199853D01*
X174000147Y-86074354D01*
X173901544Y-85926784D01*
X173833624Y-85762812D01*
X173799000Y-85588741D01*
X173799000Y-85411259D01*
X173833624Y-85237188D01*
X173901544Y-85073216D01*
X174000147Y-84925646D01*
X174125646Y-84800147D01*
X174273216Y-84701544D01*
X174437188Y-84633624D01*
X174586488Y-84603927D01*
X174611258Y-84599000D01*
X174788742Y-84599000D01*
X174813512Y-84603927D01*
G37*
G36*
X164653512Y-84603927D02*
G01*
X164802812Y-84633624D01*
X164966784Y-84701544D01*
X165114354Y-84800147D01*
X165239853Y-84925646D01*
X165338456Y-85073216D01*
X165406376Y-85237188D01*
X165441000Y-85411259D01*
X165441000Y-85588741D01*
X165406376Y-85762812D01*
X165338456Y-85926784D01*
X165239853Y-86074354D01*
X165114354Y-86199853D01*
X164966784Y-86298456D01*
X164802812Y-86366376D01*
X164653512Y-86396073D01*
X164628742Y-86401000D01*
X164451258Y-86401000D01*
X164426488Y-86396073D01*
X164277188Y-86366376D01*
X164113216Y-86298456D01*
X163965646Y-86199853D01*
X163840147Y-86074354D01*
X163741544Y-85926784D01*
X163673624Y-85762812D01*
X163639000Y-85588741D01*
X163639000Y-85411259D01*
X163673624Y-85237188D01*
X163741544Y-85073216D01*
X163840147Y-84925646D01*
X163965646Y-84800147D01*
X164113216Y-84701544D01*
X164277188Y-84633624D01*
X164426488Y-84603927D01*
X164451258Y-84599000D01*
X164628742Y-84599000D01*
X164653512Y-84603927D01*
G37*
G36*
X162901000Y-86401000D02*
G01*
X161099000Y-86401000D01*
X161099000Y-84599000D01*
X162901000Y-84599000D01*
X162901000Y-86401000D01*
G37*
G36*
X158009468Y-84753565D02*
G01*
X158048138Y-84765296D01*
X158083777Y-84784346D01*
X158115017Y-84809983D01*
X158140654Y-84841223D01*
X158159704Y-84876862D01*
X158171435Y-84915532D01*
X158176000Y-84961888D01*
X158176000Y-86038112D01*
X158171435Y-86084468D01*
X158159704Y-86123138D01*
X158140654Y-86158777D01*
X158115017Y-86190017D01*
X158083777Y-86215654D01*
X158048138Y-86234704D01*
X158009468Y-86246435D01*
X157963112Y-86251000D01*
X157311888Y-86251000D01*
X157265532Y-86246435D01*
X157226862Y-86234704D01*
X157191223Y-86215654D01*
X157159983Y-86190017D01*
X157134346Y-86158777D01*
X157115296Y-86123138D01*
X157103565Y-86084468D01*
X157099000Y-86038112D01*
X157099000Y-84961888D01*
X157103565Y-84915532D01*
X157115296Y-84876862D01*
X157134346Y-84841223D01*
X157159983Y-84809983D01*
X157191223Y-84784346D01*
X157226862Y-84765296D01*
X157265532Y-84753565D01*
X157311888Y-84749000D01*
X157963112Y-84749000D01*
X158009468Y-84753565D01*
G37*
G36*
X156134468Y-84753565D02*
G01*
X156173138Y-84765296D01*
X156208777Y-84784346D01*
X156240017Y-84809983D01*
X156265654Y-84841223D01*
X156284704Y-84876862D01*
X156296435Y-84915532D01*
X156301000Y-84961888D01*
X156301000Y-86038112D01*
X156296435Y-86084468D01*
X156284704Y-86123138D01*
X156265654Y-86158777D01*
X156240017Y-86190017D01*
X156208777Y-86215654D01*
X156173138Y-86234704D01*
X156134468Y-86246435D01*
X156088112Y-86251000D01*
X155436888Y-86251000D01*
X155390532Y-86246435D01*
X155351862Y-86234704D01*
X155316223Y-86215654D01*
X155284983Y-86190017D01*
X155259346Y-86158777D01*
X155240296Y-86123138D01*
X155228565Y-86084468D01*
X155224000Y-86038112D01*
X155224000Y-84961888D01*
X155228565Y-84915532D01*
X155240296Y-84876862D01*
X155259346Y-84841223D01*
X155284983Y-84809983D01*
X155316223Y-84784346D01*
X155351862Y-84765296D01*
X155390532Y-84753565D01*
X155436888Y-84749000D01*
X156088112Y-84749000D01*
X156134468Y-84753565D01*
G37*
G36*
X187613512Y-84143927D02*
G01*
X187762812Y-84173624D01*
X187926784Y-84241544D01*
X188074354Y-84340147D01*
X188199853Y-84465646D01*
X188298456Y-84613216D01*
X188366376Y-84777188D01*
X188401000Y-84951259D01*
X188401000Y-85128741D01*
X188366376Y-85302812D01*
X188298456Y-85466784D01*
X188199853Y-85614354D01*
X188074354Y-85739853D01*
X187926784Y-85838456D01*
X187762812Y-85906376D01*
X187613512Y-85936073D01*
X187588742Y-85941000D01*
X187411258Y-85941000D01*
X187386488Y-85936073D01*
X187237188Y-85906376D01*
X187073216Y-85838456D01*
X186925646Y-85739853D01*
X186800147Y-85614354D01*
X186701544Y-85466784D01*
X186633624Y-85302812D01*
X186599000Y-85128741D01*
X186599000Y-84951259D01*
X186633624Y-84777188D01*
X186701544Y-84613216D01*
X186800147Y-84465646D01*
X186925646Y-84340147D01*
X187073216Y-84241544D01*
X187237188Y-84173624D01*
X187386488Y-84143927D01*
X187411258Y-84139000D01*
X187588742Y-84139000D01*
X187613512Y-84143927D01*
G37*
G36*
X188401000Y-83401000D02*
G01*
X186599000Y-83401000D01*
X186599000Y-81599000D01*
X188401000Y-81599000D01*
X188401000Y-83401000D01*
G37*
G36*
X143451000Y-82851000D02*
G01*
X142049000Y-82851000D01*
X142049000Y-81199000D01*
X143451000Y-81199000D01*
X143451000Y-82851000D01*
G37*
G36*
X147951000Y-82851000D02*
G01*
X146549000Y-82851000D01*
X146549000Y-81199000D01*
X147951000Y-81199000D01*
X147951000Y-82851000D01*
G37*
M02*
